<?xml version="1.0" standalone="no"?>
<!DOCTYPE svg PUBLIC "-//W3C//DTD SVG 1.1//EN" "http://www.w3.org/Graphics/SVG/1.1/DTD/svg11.dtd" >
<!--
2013-9-30: Created.
-->
<svg>
<metadata>
Created by iconfont
</metadata>
<defs>

<font id="iconfont" horiz-adv-x="1024" >
  <font-face
    font-family="iconfont"
    font-weight="500"
    font-stretch="normal"
    units-per-em="1024"
    ascent="896"
    descent="-128"
  />
    <missing-glyph />
    
    <glyph glyph-name="x" unicode="x" horiz-adv-x="1001"
d="M281 543q-27 -1 -53 -1h-83q-18 0 -36.5 -6t-32.5 -18.5t-23 -32t-9 -45.5v-76h912v41q0 16 -0.5 30t-0.5 18q0 13 -5 29t-17 29.5t-31.5 22.5t-49.5 9h-133v-97h-438v97zM955 310v-52q0 -23 0.5 -52t0.5 -58t-10.5 -47.5t-26 -30t-33 -16t-31.5 -4.5q-14 -1 -29.5 -0.5
t-29.5 0.5h-32l-45 128h-439l-44 -128h-29h-34q-20 0 -45 1q-25 0 -41 9.5t-25.5 23t-13.5 29.5t-4 30v167h911zM163 247q-12 0 -21 -8.5t-9 -21.5t9 -21.5t21 -8.5q13 0 22 8.5t9 21.5t-9 21.5t-22 8.5zM316 123q-8 -26 -14 -48q-5 -19 -10.5 -37t-7.5 -25t-3 -15t1 -14.5
t9.5 -10.5t21.5 -4h37h67h81h80h64h36q23 0 34 12t2 38q-5 13 -9.5 30.5t-9.5 34.5q-5 19 -11 39h-368zM336 498v228q0 11 2.5 23t10 21.5t20.5 15.5t34 6h188q31 0 51.5 -14.5t20.5 -52.5v-227h-327z" />
    

    
    <glyph glyph-name="shouji" unicode="&#59102;" d="M740.854245 646.897731 278.138718 646.897731 278.138718 701.926022c0 6.458085 5.247514 11.715833 11.7056 11.715833l439.305351 0c6.458085 0 11.7056-5.257747 11.7056-11.715833L740.855268 646.897731zM740.854245 85.91411 278.138718 85.91411 278.138718 613.867454l462.715527 0L740.854245 85.91411zM740.854245-100.473951c0-6.447852-5.247514-11.695367-11.7056-11.695367l-439.305351 0c-6.458085 0-11.7056 5.247514-11.7056 11.695367L278.137695 52.882809l462.715527 0L740.853222-100.473951zM729.148645 746.672132l-439.305351 0c-24.711821 0-44.756343-20.044522-44.756343-44.74611l0-802.39895c0-24.722054 20.044522-44.725644 44.756343-44.725644l439.305351 0c24.711821 0 44.756343 20.00359 44.756343 44.725644L773.904988 701.926022C773.904988 726.62761 753.86149 746.672132 729.148645 746.672132zM459.919854-13.066205l99.153254 0 0-33.040511-99.153254 0 0 33.040511Z"  horiz-adv-x="1024" />

    
    <glyph glyph-name="money" unicode="&#58896;" d="M974.013 754 819 754 518.685 486.748 218 754 50.324 754 381.1 448 111 448 111 355 432 355 432 227 111 227 111 134 432 134 432-165 592-165 592 134 902 134 902 227 592 227 592 355 902 355 902 448 639.979 448Z"  horiz-adv-x="1024" />

    
    <glyph glyph-name="iconfonticon3" unicode="&#58887;" d="M951.918 308.36c0 0-279.997 280.026-280.517 280.518l-139.357 139.357c-5.465 5.467-12.629 8.201-19.79 8.201-7.163 0-14.324-2.733-19.792-8.201l-120.413-132.085 0 55.984c0 15.471-12.519 27.992-27.992 27.992l-111.965 0c-15.473 0-27.993-12.519-27.993-27.992l0-223.933-132.031-139.959c-10.934-10.961-10.387-28.1 0.547-39.035 10.961-10.962 26.979-12.601 37.942-1.639l37.558 40.674 0-391.883c0-30.916 25.066-55.982 55.982-55.982l615.815 0c30.917 0 55.984 25.066 55.984 55.982l0 408.859 36.875-36.876c10.935-10.934 27.636-9.951 38.599 0.983 10.934 10.935 11.508 28.102 0.545 39.035zM316.066 624.141l0-83.976-55.983-55.983 0 139.959 55.983 0zM567.991-103.642l-111.966 0 0 223.934 111.966 0 0-223.934zM819.914-75.648c0-15.473-12.519-27.993-27.992-27.993l-167.949 0 0 251.925c0 15.471-12.519 27.992-27.992 27.992l-167.949 0c-15.472 0-27.992-12.52-27.992-27.992l0-251.926-167.949 0c-15.473 0-27.993 12.519-27.993 27.993l0 419.875 308.155 324.609 307.66-307.633 0-436.849z"  horiz-adv-x="1024" />

    
    <glyph glyph-name="fanhui" unicode="&#59107;" d="M831.6 739.6 521.8 383.2 831 27.6c20.7-21.2 20.9-55.3 0.5-76.1-20.4-20.9-53.6-20.6-74.3 0.5l-341 392.2c-0.5 0.5-1.2 0.9-1.7 1.4-20.6 21.1-20.6 55.4 0 76.6L757 816.1c20.7 21.2 54.1 21.2 74.7 0.1C852.3 795 852.3 760.7 831.6 739.6z"  horiz-adv-x="1024" />

    
    <glyph glyph-name="zhifu" unicode="&#58913;" d="M914.784064 553.736822 111.627868 553.736822c-11.678994 0-21.13639-9.479909-21.13639-21.168112 0-11.707646 9.457396-21.188578 21.13639-21.188578l803.156196 0c11.688203 0 21.146623 9.479909 21.146623 21.188578C935.930687 544.256914 926.472268 553.736822 914.784064 553.736822zM935.930687 765.52846 90.491479 765.52846c-46.694485 0-84.548628-37.926798-84.548628-84.712357l0-593.038688c0-46.794769 37.854143-84.712357 84.548628-84.712357l845.439208 0c46.694485 0 84.547605 37.917588 84.547605 84.712357L1020.478292 680.816103C1020.478292 727.601662 982.625172 765.52846 935.930687 765.52846zM978.184023 87.777415c0-23.37743-18.915815-42.37511-42.253336-42.37511L90.491479 45.402305c-23.346731 0-42.274826 18.99768-42.274826 42.37511L48.216653 680.816103c0 23.387663 18.927071 42.35669 42.274826 42.35669l845.439208 0c23.337521 0 42.253336-18.969027 42.253336-42.35669L978.184023 87.777415zM492.069577 172.489772 196.175473 172.489772c-11.680017 0-21.13639-9.457396-21.13639-21.186532 0-11.689227 9.457396-21.147646 21.13639-21.147646l295.894104 0c11.669784 0 21.126156 9.458419 21.126156 21.147646C513.195733 163.031353 503.739361 172.489772 492.069577 172.489772z"  horiz-adv-x="1024" />

    
    <glyph glyph-name="geren" unicode="&#58920;" d="M517.343422 378.120958l-0.741077 0-1.279764 0c-125.058051-0.335274-238.344731-51.109793-320.352842-132.977867C112.696884 163.004142 61.772105 49.433298 61.772105-75.954916c0-6.379397 0-10.543739 0.067464-12.694397 0.134927-3.490729 0.337318-7.655072 0.605128-12.557425 0.740055-13.969049-9.957011-25.926457-24.016011-26.730909-13.992559-0.738011-25.968366 9.941678-26.707399 23.910727-0.202391 3.961952-0.403759 8.594451-0.538686 14.036513-0.201369 6.71467-0.336296 11.54956-0.336296 14.035491 0 139.426771 56.644873 265.688945 148.134684 357.028496 62.295459 62.192219 140.801597 108.263709 228.594199 131.300477-19.916066 11.484141-38.211984 25.454212-54.358266 41.572896-46.956694 46.876965-75.951722 111.621556-75.951722 183.147258 0 71.458239 28.994006 136.20283 75.951722 183.080817 46.889231 46.810523 111.740128 75.824972 183.386447 75.824972 71.577834 0 136.496194-29.013427 183.384403-75.824972 46.956694-46.877987 75.9507-111.622578 75.9507-183.080817 0-32.5062-5.984837-63.600777-16.952779-92.345372-11.366591-29.619577-28.118001-56.753223-49.110418-80.190684-9.347794-10.410857-25.361194-11.283794-35.788406-1.948266-10.425167 9.267042-11.367613 25.319285-2.016752 35.730142 16.751411 18.671056 30.13782 40.497568 39.352731 64.473714 8.813196 23.036767 13.657286 48.08722 13.657286 74.280465 0 57.422748-23.342398 109.472943-61.086225 147.150329-37.736672 37.609922-89.805266 60.915522-147.391562 60.915522s-109.65489-23.3056-147.395651-60.915522c-37.739739-37.677386-61.015695-89.72758-61.015695-147.150329 0-57.48919 23.275956-109.539384 61.015695-147.215748 37.405487-37.342112 89.002858-60.512785 146.049446-60.916544l1.345183 0c139.656761 0 266.064084-56.481325 357.621358-147.887317 91.490833-91.339551 148.132639-217.601725 148.132639-357.028496 0-2.486953-0.133905-7.32082-0.336296-14.035491-0.131861-5.373576-0.333229-9.941678-0.536642-13.904652-0.672591-13.968027-12.647376-24.714157-26.638914-24.042588-13.994604 0.739033-24.758111 12.626933-24.084497 26.595982 0.26781 4.836934 0.470201 9.202645 0.605128 12.693374 0.066441 2.150657 0.066441 6.315 0.066441 12.694397 0 125.388214-50.922735 238.959058-133.199679 321.098008C756.093956 327.146092 642.671328 377.918567 517.343422 378.120958L517.343422 378.120958z"  horiz-adv-x="1024" />

    
    <glyph glyph-name="sousuo" unicode="&#58936;" d="M948.18836-18.49498l-182.547593 182.545546c62.975287 70.596871 101.252055 163.701362 101.252055 265.748526 0 220.573651-178.806385 399.380036-399.375943 399.380036S68.140936 650.372743 68.140936 429.799092c0-220.567511 178.806385-399.37492 399.375943-399.37492 96.957239 0 185.841615 34.555004 255.019161 92.015693L905.8286-60.852694c11.697413-11.7056 30.662347-11.7056 42.35976 0C959.885773-49.159374 959.885773-30.189324 948.18836-18.49498zM128.047328 429.799092c0 187.487092 151.984507 339.473645 339.469552 339.473645 187.482999 0 339.469552-151.986553 339.469552-339.473645 0-187.480952-151.986553-339.467505-339.469552-339.467505C280.031834 90.330564 128.047328 242.317117 128.047328 429.799092z"  horiz-adv-x="1024" />

    
    <glyph glyph-name="ziliao" unicode="&#59003;" d="M779.276347 580.096391 243.699867 580.096391c-13.003783 0-23.64337 10.639586-23.64337 23.64337l0 0c0 13.003783 10.639586 23.64337 23.64337 23.64337l535.57468 0c13.003783 0 23.64337-10.639586 23.64337-23.64337l0 0C802.919716 590.737576 792.28013 580.096391 779.276347 580.096391zM802.919716 403.481136 802.919716 403.481136c0 13.003783-10.639586 23.644969-23.64337 23.644969L243.699867 427.126105c-13.003783 0-23.64337-10.639586-23.64337-23.64337l0 0c0-13.003783 10.639586-23.64337 23.64337-23.64337l535.57468 0C792.28013 379.837766 802.919716 390.477352 802.919716 403.481136zM897.360685 230.33333l0 20.668187L897.360685 512.629333l-0.012392 0L897.348294 746.650267c0 44.768247-36.38693 81.137988-81.134791 81.137988L207.687084 827.788256C162.936025 827.789854 126.549096 791.418514 126.549096 746.650267l0-249.089717 0-44.11529 0-258.591675 0.012392 0 0-30.045429 0-143.116167c0-44.768247 36.38693-81.137988 81.134791-81.137988l161.993768 0 15.562649 0 106.420847 0c11.155437 0 20.281849 9.126412 20.281849 20.281849 0 11.155237-9.126412 20.281649-20.281849 20.281649l-106.420847 0-15.562649 0-162.004761 0c-22.360839 0-40.569694 18.184071-40.569694 40.569694l0 72.600777 0 70.520187 0 30.045429 0 33.851249 0 22.295284L167.115592 453.44526l0.012392 0 0 53.955418 0 166.653609L167.127983 746.656663c0 22.381026 18.204258 40.569694 40.569694 40.569694l608.526219 0c22.360639 0 40.569694-18.184071 40.569694-40.569694l0-72.602376 0-161.426553 0-59.184073 0-202.445142-0.012392 0 0-8.09771L641.528939 242.900809c-25.714566 0-46.753701-21.039135-46.753701-46.753701l0-231.794044c0-15.730934 5.566826-24.143631 14.052672-24.143631 5.385948 0 11.948699 3.389702 19.006913 10.449515l228.946774 228.946774 30.2357 30.2357c6.383472 6.383472 9.754387 12.355423 10.344986 17.423587C897.485401 228.330888 897.482203 229.353195 897.360685 230.33333zM633.736623 11.663188l0 184.485519c0 4.223337 3.56878 7.792317 7.792317 7.792317l184.487118 0L633.736623 11.663188z"  horiz-adv-x="1024" />

    
    <glyph glyph-name="zhanghu" unicode="&#59124;" d="M934.4-128c-12.8 0-25.6 12.8-25.6 25.6 0 108.8-38.4 204.8-115.2 281.6-12.8 12.8-12.8 25.6 0 38.4 12.8 12.8 25.6 12.8 38.4 0 83.2-83.2 134.4-198.4 134.4-320C960-115.2 947.2-128 934.4-128L934.4-128zM512 294.4 512 294.4c-108.8 0-204.8-44.8-281.6-115.2-76.8-76.8-115.2-172.8-115.2-281.6 0-12.8-12.8-25.6-25.6-25.6S64-115.2 64-102.4c0 121.6 44.8 230.4 134.4 320C249.6 268.8 313.6 307.2 384 326.4 281.6 377.6 211.2 480 211.2 595.2 211.2 761.6 345.6 896 512 896s300.8-134.4 300.8-300.8S678.4 294.4 512 294.4L512 294.4zM512 844.8c-134.4 0-249.6-115.2-249.6-249.6s108.8-249.6 243.2-249.6c0 0 0 0 6.4 0l0 0c134.4 0 249.6 115.2 249.6 249.6C761.6 736 652.8 844.8 512 844.8L512 844.8z"  horiz-adv-x="1024" />

    
    <glyph glyph-name="xiaoxizhongxin" unicode="&#58881;" d="M585.6-9.6 585.6-9.6c25.6 32 38.4 44.8 41.6 44.8 208 38.4 345.6 198.4 345.6 396.8 3.2 227.2-204.8 406.4-460.8 406.4s-464-179.2-464-406.4c0-198.4 140.8-358.4 345.6-396.8 3.2 0 16-12.8 41.6-44.8l0 0c32-41.6 51.2-64 73.6-64S550.4-51.2 585.6-9.6M620.8 92.8c-19.2-3.2-32-19.2-67.2-64l0 0c-22.4-25.6-41.6-44.8-41.6-44.8l-9.6 9.6c-6.4 6.4-16 19.2-25.6 32-38.4 48-51.2 64-70.4 67.2-185.6 32-307.2 172.8-307.2 345.6 0 192 185.6 352 416 352s416-160 416-352C928 262.4 806.4 124.8 620.8 92.8zM281.6 425.6a1.4 1.5 0 1 0 89.6 0 1.4 1.5 0 1 0-89.6 0ZM467.2 425.6a1.4 1.5 0 1 0 89.6 0 1.4 1.5 0 1 0-89.6 0ZM652.8 425.6a1.4 1.5 0 1 0 89.6 0 1.4 1.5 0 1 0-89.6 0Z"  horiz-adv-x="1024" />

    
    <glyph glyph-name="zixun1" unicode="&#58882;" d="M893.918 667.526c-5.757 32.983-28.638 41.233-38.207 43.248l-2.723 0.574h-15.544c-0.575 0.042-1.153 0.072-1.736 0.072h-27.923c-0.584 0-1.164-0.031-1.737-0.072h-1.584v-0.172c-11.219-1.612-19.845-11.261-19.845-22.928v-7.219c0-11.665 8.626-21.316 19.845-22.928v-0.223h2.648c0.224-0.005 0.452-0.016 0.68-0.016h27.92c0.229 0 0.452 0.011 0.68 0.016h4.949c0.422-2.819 0.532-6.566 0.19-9.55l-0.231-1.502v-561.207c-1.065-16.143-6.546-28.281-16.287-36.078-5.842-4.676-11.848-6.751-14.572-7.517h-43.516l0.026 0.66c-17.347 0.676-27.815 7.193-33.931 21.124-5.352 12.187-5.205 25.207-5.174 26.525l0.032 0.416v583.107c1.748 32.486-6.239 57.383-23.751 74.018-20.096 19.089-44.953 19.272-52.504 18.832l-462.919-0.005c-20.398-0.166-37.823-7.65-50.393-21.635-22.848-25.428-21.501-63.809-20.831-72.832v-581.439c-0.219-5.405-0.307-25.713 9.248-47.013 14.656-32.673 44.871-52.263 85.076-55.155l0.956-0.069 604.618 0.301c3.212 0.486 20.144 3.563 37.762 16.433 16.707 12.201 37.14 35.639 39.583 77.97l0.046 0.767v559.306c0.428 4.324 0.975 13.787-0.842 24.195v0zM214.726 42.022c-12.65 1.012-29.949 4.596-38.616 22.348-5.386 11.034-5.26 22.617-5.22 24.067l0.048 0.516v585.713l-0.128 1.308c-0.6 6.081 0.004 25.279 7.259 33.352 1.703 1.897 4.34 3.838 10.97 3.91l466.149 0.113c1.46 0.011 8.022-0.152 12.35-4.479 5.378-5.374 7.832-16.988 6.911-32.702l-0.046-0.781v-583.177c-0.197-5.447-0.273-27.562 9.759-50.187l-469.436 0.001zM616.715 629.399c0-15.502-12.564-28.067-28.067-28.067h-334.146c-15.502 0-28.072 12.565-28.072 28.067v0c0 15.502 12.569 28.069 28.072 28.069h334.146c15.503 0 28.067-12.566 28.067-28.069v0 0zM616.715 125.507v0zM615.782 473.451c0-15.502-12.565-28.067-28.067-28.067h-334.146c-15.502 0-28.072 12.564-28.072 28.067v0c0 15.502 12.564 28.067 28.072 28.067h334.146c15.502 0.001 28.068-12.564 28.068-28.067zM615.782 320.888c0-15.502-12.565-28.067-28.067-28.067h-334.146c-15.502 0-28.072 12.565-28.072 28.067v0c0 15.503 12.564 28.067 28.072 28.067h334.146c15.502 0.001 28.068-12.565 28.068-28.067zM393.909 167.552c0-15.503-12.565-28.067-28.067-28.067h-112.27c-15.502 0-28.072 12.565-28.072 28.067v0c0 15.502 12.564 28.067 28.072 28.067h112.269c15.503 0 28.068-12.565 28.068-28.067v0 0zM393.909 167.552z"  horiz-adv-x="1024" />

    
    <glyph glyph-name="weixin" unicode="&#58969;" d="M692.7 559.114c11.617 0 23.117-0.829 34.519-2.109-31.022 144.445-185.446 251.766-361.728 251.766-197.084 0-358.513-134.308-358.513-304.881 0-98.493 53.709-179.308 143.457-242.033l-35.855-107.843 125.327 62.838c44.841-8.863 80.829-18.002 125.578-18.002 11.249 0 22.4 0.563 33.469 1.428-7.004 23.951-11.064 49.055-11.064 75.121 0 156.626 134.502 283.715 304.809 283.715zM497.408 663.593c30.612 0 55.424-24.817 55.424-55.429s-24.817-55.424-55.424-55.424c-30.612 0-55.429 24.817-55.429 55.424s24.817 55.429 55.429 55.429zM246.569 551.624c-30.612 0-55.429 24.817-55.429 55.424s24.817 55.429 55.429 55.429 55.429-24.817 55.429-55.424c0-30.612-24.817-55.429-55.429-55.429zM1017.38 278.543c0 143.329-143.421 260.168-304.517 260.168-170.583 0-304.927-116.833-304.927-260.168 0-143.58 134.344-260.157 304.927-260.157 35.697 0 71.711 9.011 107.571 17.997l98.34-53.862-26.967 89.595c71.962 53.985 125.573 125.573 125.573 206.428zM619.187 318.725c-0.189-0.003-0.412-0.005-0.636-0.005-21.802 0-39.475 17.674-39.475 39.475 0 21.802 17.674 39.475 39.475 39.475 0.224 0 0.447-0.002 0.669-0.006 21.493-0.357 38.806-17.892 38.806-39.47 0-21.578-17.313-39.112-38.806-39.47zM816.271 316.488c-0.189-0.003-0.412-0.005-0.636-0.005-21.802 0-39.475 17.674-39.475 39.475 0 21.802 17.674 39.475 39.475 39.475 0.224 0 0.447-0.002 0.669-0.006 21.493-0.357 38.806-17.892 38.806-39.47 0-21.578-17.313-39.112-38.806-39.47z"  horiz-adv-x="1024" />

    
    <glyph glyph-name="bangzhuzhongxin" unicode="&#58884;" d="M342.252 484.857c0 69.442 21.494 117.942 63.931 146.6 32.517 24.25 69.994 36.925 112.982 36.925 44.642 0 82.67-13.227 112.982-39.681 32.517-24.25 49.051-62.278 49.051-112.982 3.858-40.784-19.29-84.323-69.994-131.169-30.312-26.454-50.153-47.948-57.869-63.931-8.267-16.534-12.125-41.886-12.125-76.056h-67.238c0 40.784 4.96 71.096 15.432 91.487 6.062 18.188 25.352 43.539 57.869 76.607l9.369 9.369c42.988 36.925 61.175 69.442 55.113 97.55-6.062 58.971-37.477 89.834-94.794 91.487-69.442 0-103.612-41.886-103.612-125.106l-71.097-1.1z m204.469-384.689h-76.607v79.363h76.607v-79.363zM512-128C229.27-128 0 101.821 0 384 0 666.178 229.822 896 512 896c282.73 0 512-229.821 512-512 0-282.73-229.27-512-512-512z m0 972.745C257.929 844.745 51.255 638.071 51.255 384S257.929-76.745 512-76.745 972.745 129.929 972.745 384C973.296 638.071 766.071 844.745 512 844.745z"  horiz-adv-x="1024" />

    
    <glyph glyph-name="jinrongjielogo-" unicode="&#59180;" d="M1611.209 389.201c0 206.63-280.037 374.15-625.326 374.15-276.273 0-510.927-107.498-593.328-256.196-7.341-12.94-11.681-28.417-11.713-44.906 0.001-36.659 23.425-69.703 60.024-91.244l316.846-182.997c16.264-8.955 35.647-14.224 56.26-14.224 0.293 0 0.587 0.001 0.88 0.003 0.25-0.003 0.598-0.004 0.946-0.004 20.561 0 39.891 5.27 56.713 14.533l300.133 173.278c20.287 11.712 33.044 30.116 33.044 50.612 0 19.868-12.13 37.436-31.371 49.357l-111.68 64.624-247.83-142.842-187.389 108.125c72.362 65.251 207.257 108.962 361.811 108.962 230.89 0 418.278-98.086 418.278-218.969-5.019-187.389-279.828-332.531-613.614-323.748-334.204 8.784-600.857 167.939-596.047 355.328 2.51 247.203 326.466 444.63 723.622 440.656 35.345-0.418 70.062-2.301 104.151-5.856-84.769 30.516-182.585 48.157-284.521 48.157-3.424 0-6.843-0.020-10.258-0.060-87.946 0.005-170.765-11.498-242.082-31.366-287.357-78.845-488.758-262.051-488.758-475.373 0-285.684 360.765-517.201 805.813-517.201 444.839 0 805.604 231.517 805.395 517.201z"  horiz-adv-x="1611" />

    
    <glyph glyph-name="card4" unicode="&#59010;" d="M169.5 730.6h683.6c29.1 0 55.5-11.9 74.6-31.1 19.2-19.1 31.1-45.5 31.1-74.7v-478.5c0-29.1-11.9-55.6-31.1-74.7-19.1-19.2-45.5-31.1-74.6-31.1h-683.6c-29.1 0-55.5 11.9-74.6 31.1-19.2 19.1-31.1 45.5-31.1 74.7v478.5c0 29.1 11.9 55.6 31.1 74.7 19.1 19.2 45.5 31.1 74.6 31.1zM853.1 691.1h-683.6c-18.2 0-34.8-7.5-46.8-19.5s-19.5-28.6-19.5-46.8v-478.5c0-18.2 7.5-34.8 19.5-46.8s28.6-19.5 46.8-19.5h683.6c18.2 0 34.8 7.5 46.8 19.5s19.5 28.6 19.5 46.8v478.5c0 18.2-7.5 34.8-19.5 46.8s-28.6 19.5-46.8 19.5zM178.7 540.4h665.2c10.8 0 19.7-8.9 19.7-19.7 0-10.8-8.9-19.7-19.7-19.7h-665.2c-10.8 0-19.7 8.9-19.7 19.7 0 10.8 8.9 19.7 19.7 19.7zM178.7 205h312.9c10.8 0 19.7-8.9 19.7-19.8 0-10.8-8.9-19.7-19.7-19.7h-312.9c-10.8 0-19.7 8.9-19.7 19.7 0 10.9 8.9 19.8 19.7 19.8z"  horiz-adv-x="1024" />

    
    <glyph glyph-name="minshengyinhang" unicode="&#59009;" d="M509.5168 592.9344l101.5936-54.7328-96.9088-59.4048-101.5808 51.5968 96.896 62.5408z m4.672 65.6384l226.6368-126.6304-101.6064-62.5024s251.648-28.1344 343.8208-145.3824c0 0 138.8288-198.848-184.704-300.48 0 0-626.4192-152.8704-798.3616 195.7248l146.944 4.6976s114.0736-215.104 354.7904-188.5312c0 0 423.5136 15.0016 351.6416 247.9488 0 0-85.952 156.288-375.104 153.1648l-178.176 100.0576 214.1184 121.9328zM406.3616 236.5056l101.5936 56.2688 103.1552-56.2688-106.2784-56.2688-98.4704 56.2688z m120.9472 538.9056c158.4128-10.9568 419.84-49.2672 496.6912-235.392H867.0464C811.904 782.3488 250.8416 817.1136 166.9376 576.2432c-43.0976-110.4384 117.5168-237.0688 233.152-235.5072 24.0512 0.3328 62.528 13.5168 99.0336 5.12l204.16-108.5056-204.3904-119.7952c-74.4192 42.2272-148.8768 84.5056-223.3216 126.72l102.6048 60.352C210.9312 322.176-27.8528 413.9008 3.968 570.1888 43.968 766.5536 368.8832 786.3424 527.3088 775.4112z"  horiz-adv-x="1024" />

    
    <glyph glyph-name="fenqi" unicode="&#58982;" d="M815.7 710.9v-38.2c57.7 0 104.7-46.9 104.7-104.7v-63.8H103.6V568c0 57.7 46.9 104.7 104.7 104.7h5.2v38.2h-5.2c-78.8 0-142.9-64.1-142.9-142.9v-446.3c0-78.8 64.1-142.9 142.9-142.9h607.4c78.8 0 142.9 64.1 142.9 142.9V568.1c0 78.7-64.1 142.8-142.9 142.8z m104.7-589.2c0-57.7-46.9-104.7-104.7-104.7H208.3c-57.7 0-104.7 46.9-104.7 104.7V466h816.7v-344.3zM344.7 632.7c11.2 0 20.2 9 20.2 20.2v116c0 11.2-9 20.2-20.2 20.2s-20.2-9-20.2-20.2v-116c0-11.1 9.1-20.2 20.2-20.2zM512 632.7c11.2 0 20.2 9 20.2 20.2v116c0 11.2-9 20.2-20.2 20.2s-20.2-9-20.2-20.2v-116c0-11.1 9-20.2 20.2-20.2zM683.9 632.7c11.2 0 20.2 9 20.2 20.2v116c0 11.2-9 20.2-20.2 20.2s-20.2-9-20.2-20.2v-116c0-11.1 9.1-20.2 20.2-20.2zM665.4 379.5l-12.1 12.1L473.7 212l-66.5 108-22-10.5 89.1-173.3z"  horiz-adv-x="1024" />

    
    <glyph glyph-name="gengduo1" unicode="&#58885;" d="M492.675886-8.817574L885.696074 384.202615 492.675886 777.222803c-12.258185 12.258185-12.432147 32.892131 0.187265 45.51052 12.707416 12.707416 32.995485 12.703323 45.511543 0.187265l411.660734-411.660734c7.120165-7.120165 10.163477-17.065677 8.990768-26.624381 1.500167-9.755178-1.5104-20.010753-8.990768-27.491121L538.374694-54.515359c-12.258185-12.258185-32.892131-12.432147-45.511543 0.187265-12.707416 12.707416-12.703323 32.995485-0.187265 45.51052z"  horiz-adv-x="1024" />

    
    <glyph glyph-name="daikuanxinxi" unicode="&#58903;" d="M324.608 384c0-15.36 12.8-28.16 28.16-28.16h131.584v-63.488h-131.584c-15.36 0-28.16-12.8-28.16-28.16s12.8-28.16 28.16-28.16h131.584v-91.648c0-15.36 12.8-28.16 28.16-28.16s28.16 12.8 28.16 28.16v91.648h131.584c15.36 0 28.16 12.8 28.16 28.16s-12.8 28.16-28.16 28.16h-131.584v63.488h131.584c15.36 0 28.16 12.8 28.16 28.16s-12.8 28.16-28.16 28.16h-126.464l100.864 201.728c4.096 8.192 3.584 17.92-1.024 25.6-4.608 7.68-13.312 12.288-22.528 12.288-10.24 0-18.944-5.632-23.552-14.336l-88.064-175.616-87.04 175.616c-4.608 9.216-13.312 14.848-23.552 14.848-9.216 0-17.408-4.608-22.528-12.288-4.608-7.68-5.12-17.408-1.024-25.6l101.376-201.728h-126.464c-14.848-0.512-27.648-13.312-27.648-28.672M735.232 729.6c7.168-4.096 15.872-6.656 24.064-6.656 17.408 0 33.28 9.216 41.984 24.064 6.656 11.264 8.192 24.064 4.608 36.864-3.584 12.288-11.264 23.04-22.528 29.184-7.168 4.096-15.872 6.656-24.064 6.656-17.408 0-33.28-9.216-41.984-24.064-6.656-11.264-8.192-24.064-4.608-36.864 3.584-12.288 11.264-23.04 22.528-29.184M920.064 547.328c8.192 0 16.896 2.048 24.064 6.656 23.04 13.312 30.72 43.008 17.408 66.048-8.704 14.848-24.576 24.064-41.984 24.064-8.192 0-16.896-2.048-24.064-6.656-11.264-6.656-18.944-16.896-22.528-29.184-3.584-12.288-1.536-25.6 4.608-36.864 9.216-14.848 25.088-24.064 42.496-24.064M492.544 795.136c26.624 0 48.128 21.504 48.128 48.128s-21.504 48.128-48.128 48.128-48.128-21.504-48.128-48.128 21.504-48.128 48.128-48.128M970.752 411.136c-26.624 0-48.128-21.504-48.128-48.128s21.504-48.128 48.128-48.128 48.128 21.504 48.128 48.128-21.504 48.128-48.128 48.128M966.656 202.24l-13.312 7.168c-3.072 1.536-6.656 2.56-10.24 2.56-7.68 0-14.848-4.096-18.432-10.752-0.512-0.512-0.512-1.024-0.512-1.536-72.704-161.28-233.472-265.728-410.624-266.24h-1.024c-248.32 0-451.072 202.24-451.072 450.56 0 176.128 103.424 336.896 263.168 410.624 10.24 4.608 16.384 14.848 16.384 25.6 0 15.36-12.8 28.16-28.16 28.16-4.096 0-7.68-1.024-11.776-2.56-87.04-39.936-161.28-103.424-214.016-183.808-54.272-82.432-82.944-178.688-82.944-277.504 0-135.68 52.736-263.68 148.48-359.424 95.744-95.744 223.232-148.48 359.424-148.48 209.92 0 388.096 113.664 464.384 296.96 5.632 10.752 1.024 23.04-9.728 28.672"  horiz-adv-x="1024" />

    
    <glyph glyph-name="mima" unicode="&#58904;" d="M762 491.5h-35.8v73.7c0 127.2-92.7 230.7-206.6 230.7H503c-113.9 0-206.6-103.5-206.6-230.7v-73.7h-35.8v73.7c0 147 108.7 266.6 242.4 266.6h16.6C653.3 831.8 762 712.2 762 565.2v-73.7zM797.8-63.6h-573c-49.4 0-89.5 40.2-89.5 89.5v394c0 49.4 40.2 89.5 89.5 89.5h573c49.4 0 89.5-40.2 89.5-89.5V26c0.1-49.4-40.1-89.6-89.5-89.6z m-573 537.2c-29.6 0-53.7-24.1-53.7-53.7V26c0-29.6 24.1-53.7 53.7-53.7h573c29.6 0 53.7 24.1 53.7 53.7V419.9c0 29.6-24.1 53.7-53.7 53.7h-573zM511.3 61.8h-0.3c-9.9 0.2-17.8 8.3-17.6 18.2 0.7 41.4 1.2 86.6 0.9 108.7-49.1 9-90.4 55.4-90.4 105.9 0 59.2 48.2 107.4 107.4 107.4s107.4-48.2 107.4-107.4c0-33.8-16.2-66-43.3-86.2-8-5.9-19.2-4.3-25.1 3.7-5.9 7.9-4.3 19.1 3.7 25.1 18.3 13.7 28.9 34.6 28.9 57.5 0 39.5-32.1 71.6-71.6 71.6s-71.6-32.1-71.6-71.6c0-36.8 34.8-71.6 71.6-71.6 4.8 0 9.5-2 12.8-5.4 6.7-6.8 7.4-7.5 5.1-138.2-0.1-9.9-8.1-17.7-17.9-17.7z"  horiz-adv-x="1024" />

    
    <glyph glyph-name="zhongxinyinhang" unicode="&#58894;" d="M616.423 565.747V-10.93c28.184 7.226 54.922 16.62 80.938 29.629V678.48c-8.672-3.613-25.293-11.562-39.024-22.402-27.46-21.68-41.914-49.863-41.914-90.332M380.116 656.08c-13.73 10.84-30.352 18.789-39.024 22.402V18.7c25.293-12.285 52.754-22.403 80.938-29.63V565.748c0 40.469-14.453 68.652-41.914 90.332M680.74 757.973c-49.14 21.68-104.063 33.242-161.152 33.242s-111.289-11.562-160.43-32.52c-7.948-4.335-18.066-11.562-18.066-23.847 0-21.68 29.63-16.62 67.207-46.972 34.688-27.461 52.754-66.484 52.754-109.844v-596.189a398.905 398.905 0 0 1 58.535-4.336c20.234 0 39.746 1.446 58.535 4.336v596.19c0 43.359 18.066 82.382 52.754 109.843 37.577 29.629 67.206 25.293 67.206 46.972 0 11.563-10.117 19.512-17.343 23.125M519.588-51.399c-240.644 0-436.483 195.117-436.483 436.483S278.222 821.567 519.588 821.567c240.643 0 436.483-195.117 436.483-436.483S760.23-51.399 519.588-51.399m0 911.266c-263.046 0-476.229-212.46-476.229-475.506s213.183-475.506 475.506-475.506c263.046 0 475.506 213.183 475.506 475.506 0.723 263.046-212.46 475.506-474.783 475.506M112.734 384.361c0-144.53 75.156-271.717 189.335-343.26V352.565c-46.25-1.446-63.593-28.907-68.652-40.469-4.336-8.672-7.226-18.066-15.176-18.066-13.73 0-24.57 39.023-24.57 86.718s10.84 86.718 24.57 86.718c7.95 0 10.84-9.394 15.176-18.066 5.059-10.84 22.402-39.023 68.652-39.746v318.69C187.89 656.08 112.734 528.892 112.734 384.361m747.224-72.265c-4.336-8.672-7.227-18.066-15.176-18.066-13.73 0-24.57 39.023-24.57 86.718s10.84 86.718 24.57 86.718c7.95 0 10.84-9.394 15.176-18.066 5.058-10.84 21.68-37.578 65.761-39.746-7.95 134.414-80.937 250.761-187.89 318.69v-687.243c104.785 66.484 177.05 180.663 187.89 311.464-44.804-2.891-60.703-29.63-65.761-40.469"  horiz-adv-x="1024" />

    
    <glyph glyph-name="jiaotongyinhang" unicode="&#58886;" d="M808.58871 128.01475c-60.121941-1.932998-115.686887-3.879996-175.782828-5.810994-38.066963-161.894842-352.843655-118.182885-317.77169 87.269914 17.624983 121.701881 182.079822 174.859829 284.119723 82.956919 22.413978-25.330975 33.408967-48.870952 40.60296-100.429902 50.418951 1.933998 118.424884 3.878996 168.831835 5.811995 2.546998 261.822744-294.834712 394.699615-517.823494 267.646738-213.772791-121.777881-189.094815-492.849519 34.917966-587.620426v-5.836994c-122.149881 2.405998-256.13975 97.023905-285.311721 209.458795l1.650998 603.621411C138.982364 751.027142 246.15726 830.067064 343.130165 896l11.647989-5.823994c-6.719993-90.994911-2.457998-241.036765 2.904997-350.539658 60.749941 58.955942 101.682901 120.613882 206.553798 141.093862 67.583934 13.195987 132.287871 5.234995 173.093831-8.729991 306.366701-104.959898 325.439682-500.836511 65.458936-637.092378-5.835994 0-18.482982-11.455989-28.133972-13.350987 0 1.932998 6.079994 10.34299 10.661989 19.174981l23.269977 87.282915z"  horiz-adv-x="1024" />

    
    <glyph glyph-name="zhengxinbaogao" unicode="&#58883;" d="M213.333333 810.666667h427.264a170.666667 170.666667 0 0 0 170.666667-170.666667v-506.496a170.666667 170.666667 0 0 0-170.666667-170.666667H213.333333a170.666667 170.666667 0 0 0-170.666666 170.666667V640a170.666667 170.666667 0 0 0 170.666666 170.666667zM619.264-37.162667H234.666667a192.213333 192.213333 0 0 0-192 192V618.666667C42.666667 724.522667 128.810667 810.666667 234.666667 810.666667h384.597333c105.856 0 192-86.144 192-192v-463.829334c0-105.898667-86.144-192-192-192zM234.666667 768C152.32 768 85.333333 701.013333 85.333333 618.666667v-463.829334c0-82.346667 66.986667-149.333333 149.333334-149.333333h384.597333c82.346667 0 149.333333 66.986667 149.333333 149.333333V618.666667c0 82.346667-66.986667 149.333333-149.333333 149.333333H234.666667zM149.376 633.856h388.992a21.333333 21.333333 0 0 0 0-42.666667H149.376a21.333333 21.333333 0 1 0 0 42.666667zM149.376 428.757333h187.562667a21.333333 21.333333 0 0 0 0-42.666666H149.376a21.333333 21.333333 0 0 0 0 42.666666zM149.376 223.616h187.562667a21.333333 21.333333 0 0 0 0-42.666667H149.376a21.333333 21.333333 0 1 0 0 42.666667zM916.096 183.552l80.256-44.501333a21.333333 21.333333 0 1 0-20.693333-37.333334l-80.256 44.501334a21.333333 21.333333 0 0 0-8.32 29.013333 21.376 21.376 0 0 0 29.013333 8.32zM534.784 306.645333a181.674667 178.432 90 1 1 356.864 0 181.674667 178.432 90 1 1-356.864 0ZM713.216 103.68c-110.122667 0-199.765333 91.093333-199.765333 203.008 0 111.957333 89.642667 203.008 199.765333 203.008s199.765333-91.050667 199.765333-203.008c-0.042667-111.957333-89.642667-203.008-199.765333-203.008z m0 363.306667c-86.613333 0-157.098667-71.936-157.098667-160.341334s70.442667-160.341333 157.098667-160.341333 157.098667 71.936 157.098667 160.341333-70.485333 160.341333-157.098667 160.341334zM665.728 399.445333a42.666667 42.666667 0 1 1 85.333333 0 42.666667 42.666667 0 1 1-85.333333 0Z"  horiz-adv-x="1024" />

    
    <glyph glyph-name="pufa" unicode="&#58905;" d="M615.950629 241.956571c95.4368-188.342857 332.5952-157.359543 385.565257 2.925715 0 0 16.149943 36.703086 17.583543 103.862857l0.073142 328.484571L864.036571 822.857143l-0.043885-400.925257S847.169829 230.253714 615.950629 241.956571m-440.32-2.998857s254.639543-35.108571 263.402057 225.338515c-4.052114 244.5312 309.8624 260.7104 395.117714 84.8896 0 0-222.398171-2.925714-245.847771-187.2896 0 0 2.925714-227.5328-172.6464-250.938515 0 0-190.2592-32.9728-240.0256 128m227.562057 305.795657c-95.466057 188.386743-336.954514 159.568457-389.968457-0.731428 0 0-7.3728-51.975314-13.165715-106.071772L0 109.480229l155.106743-145.6128 0.029257 400.939885s16.822857 191.648914 248.042057 179.931429"  horiz-adv-x="1024" />

    
    <glyph glyph-name="guangdayinhang" unicode="&#58888;" d="M618.8-61.9h39.8c25.5 5.5 47.5 13.9 66.5 24.3H618.8v28h145.9c8.6 7.9 16.5 15.8 23.1 24.3h-169V45h188.5c4.4 7.9 8.1 16 11.4 24.3H307v29.2h521.2c2.1 8 4 16.1 5.5 24.3H307v31.7h530.7c0.7 8.6 1.1 16.7 1.1 24.1H307v28.9h531.1l-0.5 9c-1.1 5.6-3.3 10.2-4.8 15.5H307v32.9h516.1c-3.2 8.2-6.7 16.2-10.6 24.1H307v23h492.3c-5.1 8.5-10.8 16.6-17.1 24.3H566.7v34.1h181.9c-10.9 8.8-22.3 16.9-34.3 24.1H566.7v34h107.2c17.2 5.5 33.4 13.7 48 24.3H308.8v26H751c6.9 7.9 13 15.8 18.3 24.1H308.8v31.9h477.4c3.5 8.4 7 16.4 9.5 24.3H308.8v31.7H804c1.9 9.7 3.2 17.8 3.5 21.3l-0.2 2.8H308.8v31.7h495.9c-0.7 7.9-0.7 16.7-2.1 23.9H308.8v28.7h311.6v0.7h173.3c-2.8 8.1-4.9 17.1-8.4 24.1H620.4v30.4h145.2c-6.6 8.6-13.8 16.7-21.6 24.1H620.4V807.7h85.2C688 818.2 669.1 826.3 649.4 832H185.2v-896h433.6v2.1z"  horiz-adv-x="1024" />

    
    <glyph glyph-name="wodegongjijin" unicode="&#59079;" d="M795.129693-63.990587H229.393933c-28.573488 0-51.820114 23.246626-51.820114 51.821291V388.599669H116.246075c-21.565141 0-41.09579 13.604854-48.599522 33.853282-7.526089 20.214304-1.53793 43.275014 14.916859 57.348189L478.558559 819.22824a51.737746 51.737746 0 0 0 33.723846 12.496415 51.600074 51.600074 0 0 0 33.766207-12.570546l395.929252-339.369443c16.331237-13.963743 22.341754-36.970325 14.935686-57.231697-7.420188-20.308439-26.966133-33.9533-48.635999-33.9533h-61.326567v-400.768965c-0.001177-28.574664-23.246626-51.821291-51.821291-51.821291zM512.282405 784.65718c-0.793087 0-1.96742-0.196507-3.054679-1.131973L113.174922 444.049862c-1.524986-1.304946-2.083912-3.390035-1.407318-5.205663 0.720132-1.94271 2.473396-3.175878 4.478471-3.175878h108.395219v-447.83644a4.758522 4.758522 0 0 1 4.752639-4.753815h565.736937a4.758522 4.758522 0 0 1 4.752638 4.753815v447.835264h108.394043c1.985071 0 3.763045 1.222578 4.429049 3.041735 0.707189 1.934473 0.18121 4.021916-1.337893 5.320978L515.332377 783.49226c-1.128443 0.975473-2.272182 1.16492-3.049972 1.16492zM506.820224 375.199559a23.456076 23.456076 0 0 0-16.679536 6.931862l-81.731495 82.108035c-9.168744 9.211105-9.13462 24.112668 0.076485 33.281412s24.112668 9.13462 33.281412-0.076485l81.730318-82.108034c9.169921-9.211105 9.135797-24.112668-0.075308-33.281412a23.463137 23.463137 0 0 0-16.601876-6.855378zM517.732819 375.199559a23.452546 23.452546 0 0 0-16.601876 6.854201c-9.212282 9.168744-9.246406 24.070307-0.076484 33.281412l81.731494 82.108034c9.169921 9.213458 24.070307 9.245229 33.281412 0.076485 9.211105-9.168744 9.245229-24.070307 0.076485-33.281412l-81.731495-82.108034a23.466667 23.466667 0 0 0-16.679536-6.930686zM512.276521 127.704652c-12.997683 0-23.533738 10.536054-23.533737 23.533737V398.733297c0 12.997683 10.536054 23.533738 23.533737 23.533737 12.996507 0 23.533738-10.536054 23.533738-23.533737v-247.494908c0-12.997683-10.537231-23.533738-23.533738-23.533737zM629.406288 319.61287H395.146755c-12.997683 0-23.533738 10.536054-23.533738 23.533738s10.536054 23.533738 23.533738 23.533738h234.26071c12.997683 0 23.533738-10.536054 23.533737-23.533738s-10.537231-23.533738-23.534914-23.533738zM629.406288 219.027321H395.146755c-12.997683 0-23.533738 10.536054-23.533738 23.533738s10.536054 23.533738 23.533738 23.533738h234.26071c12.997683 0 23.533738-10.536054 23.533737-23.533738s-10.537231-23.533738-23.534914-23.533738z"  horiz-adv-x="1024" />

    
    <glyph glyph-name="gengduo-copy" unicode="&#58937;" d="M448.881 191.261c-4.027 0-8.052 1.537-11.126 4.608-6.144 6.145-6.144 16.107 0 22.252l165.881 165.88-165.881 165.881c-6.144 6.145-6.144 16.107 0 22.252 6.145 6.144 16.107 6.144 22.252 0l177.007-177.007c6.144-6.144 6.144-16.106 0-22.252l-177.007-177.007c-3.072-3.072-7.099-4.608-11.127-4.608z"  horiz-adv-x="1024" />

    
    <glyph glyph-name="renmingbi" unicode="&#58926;" d="M512 896C229.321059 896 0.169869 666.773313 0.169869 384.002696s229.156583-512.002696 511.830131-512.002696c282.673548 0 511.830131 229.23208 511.830131 512.002696S794.673548 896 512 896m200.915113-464.55789v-100.751457h-139.411587v-43.340977h139.411587l-2.351209-94.895006h-137.065771v-108.948332H463.384982v108.948332H323.973395v94.895006h139.411587v42.170765H325.143606V433.793319h84.346923L279.456814 684.493662h125.352868l107.190318-223.758509 108.365923 223.758509h124.177263l-132.384923-253.046159h100.75685v-0.005393z"  horiz-adv-x="1024" />

    
    <glyph glyph-name="cloud-bank" unicode="&#58991;" d="M367.424 534.4l62.08 83.968c25.408 34.304 48.832 51.904 71.616 53.76 26.752 2.496 60.288-16.384 99.072-53.824l62.144-83.968a26.368 26.368 0 0 1 42.368 31.296L639.808 652.8c-39.808 38.72-74.88 61.12-108.096 68.864V807.744a26.304 26.304 0 1 1-52.608 0v-87.04c-32.256-8.192-61.952-30.528-91.968-71.104L325.12 565.696a26.24 26.24 0 1 1 42.304-31.296zM121.408 437.12h781.248a26.24 26.24 0 1 1 0 52.608H121.408a26.304 26.304 0 1 1 0-52.608zM902.656-13.376H121.408a26.304 26.304 0 0 1 0-52.608h781.248a26.24 26.24 0 1 1 0 52.608zM161.344 344.256v-278.016a26.24 26.24 0 1 1 52.608 0V344.256a26.24 26.24 0 1 1-52.608 0zM267.2 344.256v-278.016a26.24 26.24 0 1 1 52.608 0V344.256a26.24 26.24 0 1 1-52.608 0zM439.36 344.256v-278.016a26.24 26.24 0 1 1 52.608 0V344.256a26.24 26.24 0 1 1-52.608 0zM545.28 344.256v-278.016a26.24 26.24 0 1 1 52.672 0V344.256a26.304 26.304 0 1 1-52.672 0zM717.44 344.256v-278.016a26.304 26.304 0 1 1 52.672 0V344.256a26.304 26.304 0 1 1-52.672 0zM823.36 344.256v-278.016a26.24 26.24 0 1 1 52.608 0V344.256a26.24 26.24 0 1 1-52.608 0z"  horiz-adv-x="1024" />

    
    <glyph glyph-name="jiantouyou" unicode="&#58925;" d="M312.888889-99.555556c-17.066667 0-28.444444 5.688889-39.822222 17.066667-22.755556 22.755556-17.066667 56.888889 5.688889 79.644445l364.088888 329.955555c11.377778 11.377778 17.066667 22.755556 17.066667 34.133333 0 11.377778-5.688889 22.755556-17.066667 34.133334L273.066667 708.266667c-22.755556 22.755556-28.444444 56.888889-5.688889 79.644444 22.755556 22.755556 56.888889 28.444444 79.644444 5.688889l364.088889-312.888889c34.133333-28.444444 56.888889-73.955556 56.888889-119.466667s-17.066667-85.333333-51.2-119.466666l-364.088889-329.955556c-11.377778-5.688889-28.444444-11.377778-39.822222-11.377778z"  horiz-adv-x="1024" />

    
    <glyph glyph-name="jiaotong" unicode="&#58921;" d="M808.59136 128c-60.12928-1.9456-115.67104-3.87072-175.80032-5.81632-38.05184-161.8944-352.84992-118.19008-317.76768 87.28576 17.6128 121.71264 182.0672 174.85824 284.11904 82.96448 22.44608-25.33376 33.40288-48.86528 40.63232-100.43392 50.42176 1.9456 118.41536 3.87072 168.81664 5.81632 2.56 261.81632-294.83008 394.69056-517.81632 267.63264-213.79072-121.79456-189.11232-492.8512 34.9184-587.63264V-128c-122.1632 2.41664-256.14336 97.01376-285.30688 209.46944l1.65888 603.62752C138.99776 751.02208 246.1696 830.0544 343.1424 896l11.63264-5.81632c-6.71744-90.99264-2.47808-241.02912 2.90816-350.55616 60.76416 58.96192 101.6832 120.60672 206.5408 141.1072 67.60448 13.18912 132.28032 5.24288 173.07648-8.72448 306.3808-104.96 325.44768-500.8384 65.45408-637.09184-5.81632 0-18.45248-11.44832-28.09856-13.35296 0 1.9456 6.06208 10.3424 10.67008 19.16928l23.26528 87.26528z"  horiz-adv-x="1024" />

    
    <glyph glyph-name="zhimaxinyong" unicode="&#58952;" d="M908.325926 402.962963c-17.066667 138.42963-96.711111 269.274074-233.244445 375.466667-75.851852 62.577778-147.911111 75.851852-237.037037 41.718518-30.340741-11.377778-92.918519-62.577778-109.985185-115.674074l-34.133333-26.548148C132.740741 543.288889 108.088889 399.17037 115.674074 302.459259c11.377778-144.118519 100.503704-267.377778 182.044445-316.681481 53.096296-37.925926 125.155556-56.888889 199.111111-56.888889 123.259259 0 242.725926 54.992593 316.681481 146.014815 72.059259 87.22963 106.192593 210.488889 94.814815 328.059259z m-140.325926-288.237037c-68.266667-83.437037-172.562963-123.259259-271.17037-123.259259-62.577778 0-121.362963 17.066667-168.770371 49.303703-121.362963 72.059259-280.651852 358.4 0 591.644445-22.755556-113.777778 53.096296-183.940741 79.644445-206.696296-39.822222-28.444444-75.851852-64.474074-98.607408-98.607408-49.303704-83.437037 1.896296-151.703704 11.377778-164.977778 9.481481-9.481481 18.962963-17.066667 30.340741-24.651852 11.377778-9.481481 43.614815-22.755556 81.540741-22.755555h5.688888c72.059259 3.792593 132.740741 72.059259 128.948149 142.222222 0 89.125926-58.785185 123.259259-111.881482 180.148148l-7.585185 11.377778c-100.503704 96.711111-77.748148 216.177778-77.748148 216.177778 0 36.02963 58.785185 89.125926 85.333333 98.607407 24.651852 9.481481 47.407407 15.17037 70.162963 15.170371 39.822222 0 77.748148-15.17037 117.57037-49.303704 290.133333-227.555556 221.866667-496.82963 125.155556-614.4zM428.562963 384l5.688889 3.792593 20.859259-20.85926c37.925926-36.02963 66.37037-62.577778 66.37037-117.57037 1.896296-22.755556-7.585185-45.511111-24.651851-64.474074s-39.822222-30.340741-60.681482-30.340741h-5.688889c-26.548148 0-49.303704 11.377778-54.992592 15.170371-7.585185 5.688889-15.17037 11.377778-22.755556 18.962962-26.548148 39.822222-28.444444 75.851852-7.585185 111.881482 17.066667 28.444444 47.407407 58.785185 83.437037 83.437037z"  horiz-adv-x="1024" />

    
    <glyph glyph-name="xinyongqia" unicode="&#58880;" d="M872 744L152 744C102.275 744 62 703.725 62 654l0-180 0-45 0-315c0-49.68 40.275-90 90-90l720 0c49.68 0 90 40.32 90 90L962 429 962 474 962 654C962 703.725 921.68 744 872 744zM917 114c0-24.84-20.16-45-45-45L152 69c-24.84 0-45 20.16-45 45L107 429l810 0L917 114zM917 474L107 474 107 654c0 24.84 20.16 45 45 45l720 0c24.84 0 45-20.16 45-45L917 474zM750.5 163.005c12.915-6.885 29.43-2.79 36.9 9.09l81 129.015c7.425 11.88 3.015 27.045-9.9 33.885-12.915 6.885-29.43 2.79-36.9-9.09l-81-129.015C733.175 185.01 737.585 169.84500000000003 750.5 163.005zM615.5 163.005c12.915-6.885 29.43-2.79 36.9 9.09l81 129.015c7.425 11.88 3.015 27.045-9.9 33.885-12.915 6.885-29.43 2.79-36.9-9.09l-81-129.015C598.175 185.01 602.585 169.84500000000003 615.5 163.005zM480.5 163.005c12.915-6.885 29.43-2.79 36.9 9.09l81 129.015c7.425 11.88 3.015 27.045-9.9 33.885-12.915 6.885-29.43 2.79-36.9-9.09l-81-129.015C463.175 185.01 467.585 169.84500000000003 480.5 163.005z"  horiz-adv-x="1024" />

    
    <glyph glyph-name="pinganyinhang" unicode="&#58895;" d="M620.8 211.2H403.2c-12.8 0-19.2-6.4-19.2-19.2v-211.2c0-12.8 6.4-19.2 19.2-19.2h224c12.8 0 19.2 6.4 19.2 19.2V192c-6.4 12.8-12.8 19.2-25.6 19.2zM614.4 780.8c-6.4 12.8-19.2 25.6-38.4 25.6H448c-19.2 0-32-6.4-38.4-25.6L6.4 0c-12.8-25.6 0-38.4 19.2-38.4h128c19.2 0 25.6 6.4 32 19.2l320 627.2 320-627.2c6.4-19.2 19.2-19.2 32-19.2h128c25.6 0 38.4 12.8 19.2 38.4L614.4 780.8z"  horiz-adv-x="1024" />

    
    <glyph glyph-name="xiala1" unicode="&#58889;" d="M657.2070304 473.27677033L527.38240244 331.31001452a20.43046539 20.43046539 0 0 0-15.34679504-6.94344555c-5.87522314 0-11.465587 2.52812633-15.346795 6.94344555L366.86418444 473.27677033c-6.33811953 6.69419364-8.29652723 16.45062483-5.02064526 25.06761878s11.1807277 14.63464676 20.36744027 15.45361728h259.54243369c9.22231999-0.78336308 17.16277309-6.76540849 20.43865509-15.41800986 3.31148943-8.65260137 1.35308171-18.37342512-4.98503783-25.1032262z"  horiz-adv-x="1024" />

    
    <glyph glyph-name="icon-test" unicode="&#58971;" d="M327.624567 386.548894a28.666863 28.666863 0 0 1 28.257336-28.257337h131.86757v-63.476625H355.881903a28.257336 28.257336 0 0 1 0-56.514672h131.86757v-92.143488a28.257336 28.257336 0 1 1 56.514672 0v92.143488h131.86757a28.257336 28.257336 0 1 1 0 56.514672h-131.86757v63.476625h131.86757a28.257336 28.257336 0 1 1 0 56.514673h-126.543724l101.153074 202.715673a27.438283 27.438283 0 0 1 0 25.800177 26.61923 26.61923 0 0 1-46.276508 0l-88.048221-176.50597-88.867275 174.458337a25.800177 25.800177 0 0 1-23.343017 14.742958 26.209703 26.209703 0 0 1-23.752544-38.085975l101.5626-202.306147H355.472377a29.485916 29.485916 0 0 1-27.84781-29.076389M739.198813 732.189355a50.7813 50.7813 0 0 1 24.16207-6.552426 48.733667 48.733667 0 0 1 40.952661 24.16207 46.686034 46.686034 0 0 1 4.504793 36.857395 45.866981 45.866981 0 0 1-22.523964 29.485916 49.55272 49.55272 0 0 1-24.16207 6.552426 47.914614 47.914614 0 0 1-40.952661-24.16207 46.276507 46.276507 0 0 1-4.914319-36.857395 49.55272 49.55272 0 0 1 22.523963-29.485916m185.515556-182.648869a46.686034 46.686034 0 0 1 24.16207 6.552425 49.143194 49.143194 0 0 1 17.609644 66.343312 49.962247 49.962247 0 0 1-40.952661 24.16207 45.457454 45.457454 0 0 1-24.16207-6.552426 48.733667 48.733667 0 0 1-22.523964-29.485916 48.32414 48.32414 0 0 1 4.504793-36.857395 49.55272 49.55272 0 0 1 40.952661-24.16207m-427.95531 249.811233a48.32414 48.32414 0 1 1-48.32414 48.324141 48.32414 48.32414 0 0 1 48.32414-48.324141m479.555664-385.364542A48.32414 48.32414 0 1 1 1023.819809 363.615403a48.32414 48.32414 0 0 1-48.32414 48.324141M970.581349 199.804758l-13.514378 7.371479a21.70491 21.70491 0 0 1-28.666863-8.190532 456.622173 456.622173 0 0 0-414.850459-269.468511A456.622173 456.622173 0 0 0 323.119774 800.580299a29.07639 29.07639 0 0 1 16.790591 25.800177 29.07639 29.07639 0 0 1-28.666862 28.666863 40.952661 40.952661 0 0 1-11.876272-2.45716A513.546372 513.546372 0 0 1 0.003277 385.72984a510.679686 510.679686 0 0 1 149.88674-363.250105A506.174893 506.174893 0 0 1 512.321069-127.816532a494.298622 494.298622 0 0 1 468.088919 300.183007 21.295384 21.295384 0 0 1-9.828639 27.438283"  horiz-adv-x="1024" />

    
    <glyph glyph-name="Symbols" unicode="&#58972;" d="M512 384m-512 0a512 512 0 1 1 1024 0 512 512 0 1 1-1024 0ZM327.68 386.4576a28.672 28.672 0 0 1 28.2624-28.2624h131.8912v-63.488H355.9424a28.2624 28.2624 0 0 1 0-56.5248h131.8912v-92.16a28.2624 28.2624 0 1 1 56.5248 0v92.16h131.8912a28.2624 28.2624 0 1 1 0 56.5248h-131.8912v63.488h131.8912a28.2624 28.2624 0 1 1 0 56.5248h-126.5664l101.1712 202.752a27.4432 27.4432 0 0 1 0 25.8048 26.624 26.624 0 0 1-46.2848 0l-88.064-176.5376-88.8832 174.4896a25.8048 25.8048 0 0 1-23.3472 14.7456 26.2144 26.2144 0 0 1-23.7568-38.0928l101.5808-202.3424H355.5328a29.4912 29.4912 0 0 1-27.8528-29.0816"  horiz-adv-x="1024" />

    
    <glyph glyph-name="bangzhuzhongxin1" unicode="&#58973;" d="M342.25 484.8625c0 69.4375 21.5 117.9375 63.9375 146.6 32.5 24.25 70 36.925 112.975 36.925 44.65 0 82.675-13.2375 112.9875-39.6875 32.5-24.25 49.05-62.275 49.05-112.9875 3.85-40.775-19.2875-84.3125-70-131.1625-30.3125-26.45-50.15-47.95-57.8625-63.9375-8.275-16.525-12.125-41.875-12.125-76.05h-67.2375c0 40.7875 5 71.1 15.425 91.4875 6.0625 18.1875 25.35 43.5375 57.875 76.6l9.3625 9.375c42.9875 36.925 61.175 69.45 55.1125 97.5-6.0625 58.975-37.5 89.8375-94.7875 91.4875C447.5 611 413.35 569.175 413.35 486zM512-128C229.2625-128 0 101.825 0 384S229.825 896 512 896c282.725 0 512-229.8125 512-512 0-282.7375-229.275-512-512-512z m0 972.75C257.925 844.75 51.25 638.075 51.25 384s206.675-460.7375 460.75-460.7375S972.75 129.925 972.75 384C973.3 638.075 766.0625 844.75 512 844.75zM470.1125 100.175h76.6125v79.35h-76.6125v-79.35z"  horiz-adv-x="1024" />

    
    <glyph glyph-name="baodan" unicode="&#58974;" d="M887.774806 895.980545H136.187742A108.539821 108.539821 0 0 1 25.6 789.488645v-810.976778A108.539821 108.539821 0 0 1 136.187742-127.980033h751.587064A108.539821 108.539821 0 0 1 998.362549-21.488133V789.488645A108.539821 108.539821 0 0 1 887.774806 895.980545zM947.16452-32.751699a44.542285 44.542285 0 0 0-45.566246-44.030305H122.364275a44.542285 44.542285 0 0 0-45.566246 44.030305V800.752211A44.542285 44.542285 0 0 0 122.364275 844.782516h779.233999a44.542285 44.542285 0 0 0 45.566246-44.030305zM263.158854 384.000256h548.84287a29.694857 29.694857 0 0 1 32.766738 25.599014 29.694857 29.694857 0 0 1-32.766738 25.599015H263.158854a29.694857 29.694857 0 0 1-32.766738-25.599015 29.694857 29.694857 0 0 1 32.766738-25.599014zM263.158854 588.792371h548.84287a29.694857 29.694857 0 0 1 32.766738 25.599015 29.694857 29.694857 0 0 1-32.766738 25.599014H263.158854a29.694857 29.694857 0 0 1-32.766738-25.599014 29.694857 29.694857 0 0 1 32.766738-25.599015zM504.81355 179.20814H263.158854a29.694857 29.694857 0 0 1-32.766738-25.599014 29.694857 29.694857 0 0 1 32.766738-25.599014h241.654696a29.694857 29.694857 0 0 1 32.766739 25.599014 29.694857 29.694857 0 0 1-32.766739 25.599014zM742.372404 230.406169a102.396058 102.396058 0 1 0-102.396057-102.396057 102.396058 102.396058 0 0 0 102.396057 102.396057z m0-153.594086a51.198029 51.198029 0 1 1-51.198029 51.198029 51.198029 51.198029 0 0 1 51.198029-51.198029z"  horiz-adv-x="1024" />

    
    <glyph glyph-name="anjiefangdai" unicode="&#58975;" d="M694.424471 726.942277s320.486369-320.486369 320.021223-320.486369a31.164857 31.164857 0 0 0 0-46.514713 30.69971 30.69971 0 0 0-44.188977 0l-41.863242 41.863242v-465.147126A64.190303 64.190303 0 0 0 863.738025-127.998139H160.435571a64.190303 64.190303 0 0 0-64.190303 63.725156V383.663699l-42.793536-46.514713a29.769416 29.769416 0 0 0-43.258682 0 31.630005 31.630005 0 0 0 0 46.514713l150.242521 159.545464 191.640616 192.105762 139.544138 150.707669a32.095152 32.095152 0 0 0 46.514712 0z m169.313554-759.120109V466.925034L512.086798 818.111114l-352.116374-372.117701v-478.171245a32.095152 32.095152 0 0 1 32.095152-32.095151h640.042444a31.630005 31.630005 0 0 1 31.630005 32.095151zM860.947142 709.266686a23.257356 23.257356 0 0 0 23.257356-23.257356v-139.544137a23.257356 23.257356 0 0 0-23.257356-23.257357 23.257356 23.257356 0 0 0-23.257356 23.257357v139.544137a23.257356 23.257356 0 0 0 23.257356 23.257356zM372.54266 151.090136v279.088275h279.088276v-279.088275z m46.514713 46.514712h186.05885v186.058851H419.057373z"  horiz-adv-x="1025" />

    
    <glyph glyph-name="icon-test1" unicode="&#58976;" d="M152.529218 895.997324h988.317975A150.745251 150.745251 0 0 0 1248.777224 851.398137a159.219096 159.219096 0 0 0 44.599187-111.051974v-711.357026a159.219096 159.219096 0 0 0-44.599187-111.051975 148.961283 148.961283 0 0 0-107.484039-44.599186H152.529218a148.961283 148.961283 0 0 0-107.48404 44.599186 159.219096 159.219096 0 0 0-44.599186 111.051975V739.008187A159.219096 159.219096 0 0 0 44.599187 851.398137a150.745251 150.745251 0 0 0 107.930031 44.599187z m988.317975-58.424934H152.529218A94.550276 94.550276 0 0 1 85.184446 806.798951a99.010194 99.010194 0 0 1-28.097487-69.574731v-708.235083A99.010194 99.010194 0 0 1 85.184446-40.585594a94.550276 94.550276 0 0 1 67.344772-28.989472h988.317975a94.550276 94.550276 0 0 1 67.344772 28.989472 99.010194 99.010194 0 0 1 28.097487 69.574731V739.008187A99.010194 99.010194 0 0 1 1208.191965 806.798951a94.550276 94.550276 0 0 1-67.344772 30.773439zM162.341039 628.402205h968.694333a30.773439 30.773439 0 0 0 0-61.100886H162.341039a30.773439 30.773439 0 0 0 0 61.100886z m0-518.68854h455.803687a30.773439 30.773439 0 0 0 0-61.100886H162.341039a30.773439 30.773439 0 0 0 0 61.100886z"  horiz-adv-x="1293" />

    
    <glyph glyph-name="dae" unicode="&#58977;" d="M821.004678-128H188.684678a120.32 120.32 0 0 0-33.28 6.656 182.784 182.784 0 0 0-65.536 35.84 173.568 173.568 0 0 0-32.256 34.816A204.8 204.8 0 0 0 25.356678 23.04v13.824V721.92a115.712 115.712 0 0 1 0 13.312 117.76 117.76 0 0 0 6.144 29.696 171.008 171.008 0 0 0 20.48 44.032A153.6 153.6 0 0 0 76.556678 844.8a174.08 174.08 0 0 0 44.544 29.696A187.904 187.904 0 0 0 178.956678 896h655.36a143.36 143.36 0 0 0 32.256-6.144 190.464 190.464 0 0 0 65.536-35.84 177.152 177.152 0 0 0 35.84-39.936A189.44 189.44 0 0 0 998.156678 742.4v-692.736a160.256 160.256 0 0 0-16.896-71.68 230.912 230.912 0 0 0-26.112-40.96 193.536 193.536 0 0 0-51.2-40.96A175.104 175.104 0 0 0 844.556678-128h-19.968zM946.956678 384v-324.096A136.704 136.704 0 0 0 809.740678-76.8H213.772678a130.56 130.56 0 0 0-80.896 26.112A136.192 136.192 0 0 0 76.556678 45.568V707.584a133.12 133.12 0 0 0 40.96 98.304A131.584 131.584 0 0 0 203.020678 844.8h606.72A135.168 135.168 0 0 0 946.956678 720.384a90.624 90.624 0 0 0 0-11.776zM511.756678 230.4h-204.8a72.704 72.704 0 0 0-54.272 22.528 71.168 71.168 0 0 0-20.992 51.2V667.136a72.192 72.192 0 0 0 16.896 48.64A73.216 73.216 0 0 0 304.396678 742.4h414.72A75.264 75.264 0 0 0 793.356678 681.472a99.328 99.328 0 0 0 0-12.288v-365.056A73.728 73.728 0 0 0 733.452678 230.4a88.576 88.576 0 0 0-16.384 0z m0 42.496h204.8a34.304 34.304 0 0 1 32.768 34.816v358.4a31.232 31.232 0 0 1 0 7.168 34.304 34.304 0 0 1-34.304 27.648H309.004678a34.816 34.816 0 0 1-35.328-35.84v-358.4a32.256 32.256 0 0 1 12.8-25.088 35.84 35.84 0 0 1 23.04-7.68zM588.556678 51.712A76.8 76.8 0 1 0 494.348678 128a61.952 61.952 0 0 0 25.6 0 80.896 80.896 0 0 0 51.2-25.6 73.728 73.728 0 0 0 17.408-50.688z m-102.4 0a25.6 25.6 0 0 1 51.2 0 25.6 25.6 0 0 1-51.2 0zM490.764678 515.584L486.156678 519.168 406.796678 602.112a23.552 23.552 0 0 0 0 30.72 19.968 19.968 0 0 0 29.696 0l36.864-37.888 37.888-39.424h4.096L588.556678 631.808a25.088 25.088 0 0 0 9.728 8.192 19.456 19.456 0 0 0 16.384-3.584 22.528 22.528 0 0 0 3.072-33.28l-35.84-36.352c-14.848-15.872-30.208-31.744-45.568-47.104a30.72 30.72 0 0 0-4.096-4.096h84.992a19.456 19.456 0 0 0 16.384-6.656 21.504 21.504 0 0 0 0-27.136 20.48 20.48 0 0 0-17.92-9.728H534.284678v-56.32c0-4.096 0-4.096 3.584-4.096h80.896A20.992 20.992 0 0 0 639.756678 384a19.968 19.968 0 0 0-17.408-13.824H537.356678c-3.584 0-3.584 0-3.584-4.096v-60.416a21.504 21.504 0 0 0-16.896-21.504 20.992 20.992 0 0 0-25.088 20.992v59.392c0 4.096 0 4.096-3.584 4.096h-81.92A20.992 20.992 0 0 0 383.756678 397.824a19.968 19.968 0 0 0 16.384 13.312H486.156678c3.584 0 3.584 0 3.584 3.584v51.2c0 3.072 0 3.072-3.072 3.072H405.772678a17.408 17.408 0 0 0-7.168 0A22.016 22.016 0 0 0 383.756678 496.64a20.48 20.48 0 0 0 20.48 18.432h86.528z"  horiz-adv-x="1024" />

    
    <glyph glyph-name="gengduo" unicode="&#58978;" d="M205.087643 896h230.382606a27.133951 27.133951 0 0 0 19.454531-8.191382 26.62199 26.62199 0 0 0 6.143536-19.454531v-409.569077a26.110029 26.110029 0 0 0-8.191381-19.454531 27.133951 27.133951 0 0 0-19.454532-7.679421h-409.569077a32.253565 32.253565 0 0 0-19.454531 7.679421 30.205719 30.205719 0 0 0-4.095691 19.966492v235.50222a196.593157 196.593157 0 0 0 60.411439 141.813293A204.784539 204.784539 0 0 0 205.087643 896z m216.55965-41.468869H205.087643a165.363515 165.363515 0 0 1-115.703265-47.100444A162.803708 162.803708 0 0 1 41.771973 691.215461v-220.143379h379.87532zM205.087643-85.941863h215.023765v379.875319H42.795896V76.861845a160.243902 160.243902 0 0 1 47.612405-114.16738 165.363515 165.363515 0 0 1 114.679342-48.636328z m230.382606-41.980831H205.087643a204.784539 204.784539 0 0 0-143.349177 58.363594A197.61708 197.61708 0 0 0 0.303104 73.278116V307.244451a34.30141 34.30141 0 0 0 8.191382 20.990415 32.253565 32.253565 0 0 0 19.454531 7.67942h409.569077a27.133951 27.133951 0 0 0 19.454531-7.67942 29.181797 29.181797 0 0 0 4.095691-20.990415v-409.569077a23.550222 23.550222 0 0 0-8.191381-19.454532 22.526299 22.526299 0 0 0-17.406686-6.143536z m383.97101 0h-230.382606a25.598067 25.598067 0 0 0-20.478454 8.191382 27.133951 27.133951 0 0 0-8.191381 19.454531v409.569077a34.30141 34.30141 0 0 0 8.191381 20.990416 31.741604 31.741604 0 0 0 20.478454 7.67942h405.985348a32.765526 32.765526 0 0 0 20.990415-7.67942 34.30141 34.30141 0 0 0 8.191382-20.990416v-233.966335a197.61708 197.61708 0 0 0-60.411439-142.837216A207.856307 207.856307 0 0 0 819.441259-127.922694z m-217.583572 41.980831H819.441259a165.363515 165.363515 0 0 1 115.191303 47.100444 160.243902 160.243902 0 0 1 47.100444 115.703264v217.071611h-378.851397zM792.819269 892.416271a233.454374 233.454374 0 0 0 163.31567-66.043014A227.822799 227.822799 0 0 0 1024.225798 664.08151a225.262993 225.262993 0 0 0-68.090859-162.291747 232.430452 232.430452 0 0 0-327.655262 0 229.358683 229.358683 0 0 0-68.090859 162.291747A228.846722 228.846722 0 0 0 792.819269 892.416271z m134.645834-95.224811A188.401776 188.401776 0 0 1 792.819269 852.483286a189.93766 189.93766 0 0 1-191.985505-188.401776 187.377853 187.377853 0 0 1 55.803787-133.10995 191.985505 191.985505 0 0 1 136.181718-56.315749 189.425698 189.425698 0 0 1 134.645834 56.315749 185.330008 185.330008 0 0 1 0 266.2199z"  horiz-adv-x="1024" />

    
    <glyph glyph-name="faren" unicode="&#58979;" d="M512 896a512 512 0 1 1 512-512A512 512 0 0 1 512 896z m0-982.016A470.528 470.528 0 1 0 982.016 384 471.04 471.04 0 0 0 512-86.016zM587.264 435.2l-25.6-43.008H460.8L436.736 435.2A181.76 181.76 0 0 1 256 257.024v-16.384a30.208 30.208 0 0 1 0-7.168 22.528 22.528 0 0 1 21.504-14.336 21.504 21.504 0 0 1 20.992 14.336 16.384 16.384 0 0 1 0 7.168v32.768A120.832 120.832 0 0 0 409.6 391.168l39.936-66.048L409.6 193.024l30.72-35.84 6.144-7.168 51.2-62.464A15.36 15.36 0 0 1 512 76.8a14.848 14.848 0 0 1 12.8 6.656l53.76 63.488 6.144 7.68 30.72 35.84-41.472 131.584 40.448 69.12a120.32 120.32 0 0 0 108.032-117.76v-32.768a16.384 16.384 0 0 1 0-7.168 22.016 22.016 0 0 1 20.992-14.336 23.04 23.04 0 0 1 21.504 14.336 30.208 30.208 0 0 1 0 7.168v16.384A181.76 181.76 0 0 1 587.264 435.2zM563.2 197.632l-8.704-11.776-32.768-44.032L512 128l-9.728 13.824-32.768 44.032-8.704 11.776 9.216 32.768 24.576 88.064 4.096 14.336h26.624l4.096-14.848 24.576-87.552zM512 435.2a153.6 153.6 0 1 0 153.6 153.6 153.6 153.6 0 0 0-153.6-153.6z m0 256a102.4 102.4 0 1 1 102.4-102.4 102.4 102.4 0 0 1-102.4 102.4z"  horiz-adv-x="1025" />

    
    <glyph glyph-name="fenqi1" unicode="&#58980;" d="M1013.14786 763.745508v-46.737476a116.089859 116.089859 0 0 0 119.10518-127.146036v-77.895793h-1055.362354V589.861996a113.577091 113.577091 0 0 0 116.089859 127.146036H201.021401v46.737476h-8.040856A184.437135 184.437135 0 0 1 0 589.861996v-543.762889a184.437135 184.437135 0 0 1 192.980545-173.883512h820.167315A184.437135 184.437135 0 0 1 1206.128404 46.099107V589.861996a184.437135 184.437135 0 0 1-192.980544 173.883512z m118.602626-706.08767a129.658803 129.658803 0 0 0-135.689445-122.120501H210.067364a129.658803 129.658803 0 0 0-135.689446 122.120501v402.042801h1055.362354v-402.042801zM402.042801 694.895678a26.132782 26.132782 0 0 1 26.635336 26.132782v150.766051A26.132782 26.132782 0 0 1 402.042801 895.917079a26.132782 26.132782 0 0 1-25.127675-26.132782v-150.766051A26.132782 26.132782 0 0 1 402.042801 694.895678z m221.626095 0a26.132782 26.132782 0 0 1 29.650656 26.132782v150.766051a26.132782 26.132782 0 0 1-28.142996 24.122568 26.132782 26.132782 0 0 1-26.635335-26.132782v-150.766051a26.132782 26.132782 0 0 1 26.635335-24.122568zM854.340953 694.895678a26.132782 26.132782 0 0 1 26.635336 26.132782v150.766051A26.132782 26.132782 0 0 1 854.340953 895.917079a26.132782 26.132782 0 0 1-26.635335-26.132782v-150.766051A26.132782 26.132782 0 0 1 854.340953 694.895678zM778.957928 329.036729l-15.076605 14.071498-225.646523-212.077578-83.423881 127.648589-27.640442-12.563837L539.239907 41.576126l239.718021 287.460603z"  horiz-adv-x="1206" />

    
    <glyph glyph-name="heihu" unicode="&#58981;" d="M535.272727 384A256 256 0 1 1 279.272727 640a256 256 0 0 1 256-256z m0 465.454545A209.454545 209.454545 0 1 0 325.818182 640 208.989091 208.989091 0 0 0 535.272727 849.454545zM744.727273-128H0v167.563636C0 240.64 352.814545 337.454545 576.698182 337.454545a884.363636 884.363636 0 0 0 93.090909-6.050909c-14.429091-24.669091-29.323636-12.567273-37.701818-40.029091h-58.647273C325.818182 303.010909 46.545455 161.512727 46.545455 39.563636V-81.454545h628.363636c17.687273-26.996364 41.890909-24.669091 69.818182-46.545455zM985.832727 296.029091A207.127273 207.127273 0 0 1 861.090909 337.454545a208.989091 208.989091 0 0 1-209.454545-209.454545 207.127273 207.127273 0 0 1 41.425454-124.741818z m34.443637-31.650909l-295.563637-295.563637a209.454545 209.454545 0 0 1 295.563637 295.563637zM861.090909 384a256 256 0 1 0-256-256 256 256 0 0 0 256 256z"  horiz-adv-x="1117" />

    
    <glyph glyph-name="kefu" unicode="&#58983;" d="M1025.431267 553.268796C963.643469 751.628094 779.48234 896 560.756112 896S157.883067 751.628094 96.095269 553.268796A243.157957 243.157957 0 0 1 0 359.604053c0-105.570256 67.269551-195.181886 161.089105-229.088601 75.298959-108.275351 193.00636-184.518946 329.291606-204.327682a72.994619 72.994619 0 1 1 3.878734 49.049521 436.794074 436.794074 0 0 0-259.860843 141.051366c3.1631-0.128814 6.26895-0.486631 9.43205-0.48663A97.540848 97.540848 0 0 1 341.342875 213.285624V505.893857a97.526536 97.526536 0 0 1-97.512223 97.512223 242.657013 242.657013 0 0 1-82.555483-14.627549c68.700818 152.301125 221.517199 258.458201 399.480943 258.458201s330.722874-106.157076 399.52388-258.458201a242.80014 242.80014 0 0 1-82.569796 14.627549 97.540848 97.540848 0 0 1-97.526535-97.512223V213.285624a97.555161 97.555161 0 0 1 97.526535-97.526535 243.615962 243.615962 0 0 1 147.721071 437.509707zM560.756112-30.473464a24.33154 24.33154 0 1 0-24.33154-24.33154 24.33154 24.33154 0 0 0 24.33154 24.33154zM292.59392 505.893857V213.285624a48.763268 48.763268 0 0 0-48.763268-48.663079 195.053071 195.053071 0 0 0 0 390.091831 48.777581 48.777581 0 0 0 48.763268-48.820519zM877.710196 164.622545a48.734643 48.734643 0 0 0-48.748955 48.663079V505.893857a48.748955 48.748955 0 0 0 48.748955 48.763268 195.038759 195.038759 0 1 0 0-390.063205z"  horiz-adv-x="1121" />

    
    <glyph glyph-name="gongjijin" unicode="&#58984;" d="M835.033844-128H188.544515a59.110255 59.110255 0 0 0-59.110255 59.57569v457.988121H59.153562a59.57569 59.57569 0 0 0-55.386774 38.631112 58.64482 58.64482 0 0 0 17.221098 65.626346L473.390785 881.528692a58.179385 58.179385 0 0 0 76.796789 0l452.402899-387.707423a59.110255 59.110255 0 0 0-38.631112-104.257458h-69.815262v-457.522685A59.110255 59.110255 0 0 0 835.033844-128zM512.021897 841.96671a4.654351 4.654351 0 0 1-3.258046 0L55.895517 452.862982a5.119786 5.119786 0 0 1 0-5.585221 5.585221 5.585221 0 0 1 5.119786-3.723481h121.943991v-511.97859a5.585221 5.585221 0 0 1 5.585221-5.585221h646.489329a5.119786 5.119786 0 0 1 5.119786 5.585221v511.97859h123.805731a5.119786 5.119786 0 0 1 5.119786 3.258046 5.119786 5.119786 0 0 1 0 6.050656l-453.799204 388.172858a6.050656 6.050656 0 0 1-3.258046 0.93087zM532.966476 337.435082a27.46067 27.46067 0 0 0-18.151969 7.446961l-88.432665 89.363536a25.598929 25.598929 0 0 0 0 35.838501 25.133494 25.133494 0 0 0 36.303936 0l88.432666-88.432665a26.064365 26.064365 0 0 0 0-36.303937 25.598929 25.598929 0 0 0-18.151968-7.912396zM537.620826 337.435082a25.598929 25.598929 0 0 0-18.151968 7.446961 26.064365 26.064365 0 0 0 0 36.303936l88.432666 88.432666a25.133494 25.133494 0 0 0 36.303936 0 25.598929 25.598929 0 0 0 0-35.838501l-88.432665-88.898101a27.46067 27.46067 0 0 0-18.151969-7.446961zM535.293651 383.97859a23.271754 23.271754 0 0 0 23.271754-23.271754v-232.717541a23.271754 23.271754 0 0 0-23.271754-23.271754 23.271754 23.271754 0 0 0-23.271754 23.271754v232.717541a23.271754 23.271754 0 0 0 23.271754 23.271754zM670.73526 337.435082H399.852042a25.598929 25.598929 0 0 0-27.46067 23.271754 25.598929 25.598929 0 0 0 27.46067 23.271754h270.883218a25.598929 25.598929 0 0 0 27.46067-23.271754 25.598929 25.598929 0 0 0-27.46067-23.271754z m0-139.630525H399.852042a25.598929 25.598929 0 0 0-27.46067 23.271754 25.598929 25.598929 0 0 0 27.46067 23.271754h270.883218a25.598929 25.598929 0 0 0 27.46067-23.271754 25.598929 25.598929 0 0 0-27.46067-23.271754z"  horiz-adv-x="1024" />

    
    <glyph glyph-name="shouji1" unicode="&#58985;" d="M256.224679 781.371138h510.200811V844.752913a13.485484 13.485484 0 0 1-13.035968 13.485484H269.260647a13.485484 13.485484 0 0 1-13.035968-13.485484z m510.200811-644.156619H256.224679V743.611783h510.200811zM256.224679-76.755161a13.035968 13.035968 0 0 1 13.035968-13.485484h484.128875a13.035968 13.035968 0 0 1 13.035968 13.485484v176.210325H256.224679zM269.260647 895.997752h484.128875A50.345807 50.345807 0 0 0 804.184846 844.752913v-921.508074a50.345807 50.345807 0 0 0-49.446775-51.244839H269.260647A50.345807 50.345807 0 0 0 219.813872-76.755161V844.752913A50.345807 50.345807 0 0 0 269.260647 895.997752zM578.07823-2.135483h-89.903226v44.951614h89.903226v-44.951614z"  horiz-adv-x="1024" />

    
    <glyph glyph-name="shenfenzheng" unicode="&#58986;" d="M700.631579-128H107.789474c-78.686316 0-107.789474 30.181053-107.789474 107.789474V788.210526C0 864.202105 32.875789 896 107.789474 896h1185.68421c74.913684 0 107.789474-31.797895 107.789474-107.789474v-811.115789c0-73.835789-31.797895-105.094737-107.789474-105.094737H700.631579z m0 53.894737h592.842105c46.888421 0 53.894737 4.311579 53.894737 50.122105V791.983158c0 45.810526-4.311579 50.122105-51.2 50.122105H107.789474c-46.888421 0-53.894737-4.311579-53.894737-50.122105v-815.966316c0-45.810526 4.311579-50.122105 53.894737-50.122105zM970.105263 615.208421h-224.202105c-23.174737 0-45.271579 4.850526-45.271579 31.258947s19.402105 33.953684 43.654737 33.953685h448.943158c23.174737 0 44.193684-5.389474 44.732631-32.336842s-19.402105-32.336842-43.115789-32.336843H970.105263z m0-209.650526h-221.507368c-24.791579 0-47.966316 5.389474-47.966316 32.336842s23.174737 32.875789 47.966316 32.336842h442.475789c24.252632 0 47.427368 0 47.427369-32.336842s-23.174737-32.336842-47.427369-32.336842z m35.031579-144.976842h188.092632c24.791579 0 46.349474-3.772632 46.349473-33.953685s-23.174737-31.258947-46.349473-31.258947h-377.263158c-24.791579 0-46.349474 4.850526-46.349474 34.492632s23.174737 30.72 46.349474 30.72h187.014737zM296.96 357.052632c-101.861053 110.484211-107.789474 229.591579-13.473684 317.44a215.578947 215.578947 0 0 0 297.498947 0c90.543158-86.770526 85.153684-205.877895-17.246316-317.44l33.953685-19.941053A308.277895 308.277895 0 0 0 754.526316 80.033684c0-22.635789 0-45.271579-29.642105-45.271579s-36.109474 19.402105-37.726316 43.654737A252.227368 252.227368 0 0 1 431.157895 315.553684a252.227368 252.227368 0 0 1-255.461053-237.675789c0-24.252632-8.084211-45.271579-37.726316-44.193684S107.789474 56.32 107.789474 78.955789a309.355789 309.355789 0 0 0 156.833684 257.616843c9.162105 5.928421 19.402105 11.317895 28.56421 16.707368l3.772632 5.389474z m279.174737 164.378947a143.36 143.36 0 0 1-87.309474 134.736842A148.749474 148.749474 0 0 1 328.757895 626.526316a143.36 143.36 0 0 1-32.87579-156.833684 148.210526 148.210526 0 0 1 237.67579-48.505264 138.509474 138.509474 0 0 1 42.576842 102.4z"  horiz-adv-x="1401" />

    
    <glyph glyph-name="qia" unicode="&#58987;" d="M1248.94438 896H113.546609A113.647213 113.647213 0 0 1 0.000118 782.235279V-14.184918A113.647213 113.647213 0 0 1 113.546609-128H1248.94438a113.647213 113.647213 0 0 1 113.546492 113.764721V782.235279A113.647213 113.647213 0 0 1 1248.94438 896z m56.739672-910.184918a56.840393 56.840393 0 0 0-56.739672-56.907541H113.546609a56.85718 56.85718 0 0 0-56.773246 56.907541V782.235279a56.840393 56.840393 0 0 0 56.773246 56.890754H1248.94438a56.823607 56.823607 0 0 0 56.739672-56.890754z m-652.841967 113.764721H255.479724a28.436984 28.436984 0 0 1 0-56.85718H652.842085a28.436984 28.436984 0 0 1 0 56.85718zM1220.524183 611.579803H141.933232a28.45377 28.45377 0 0 1 0-56.890754h1078.590951a28.45377 28.45377 0 0 1 0 56.890754z"  horiz-adv-x="1362" />

    
    <glyph glyph-name="gongji" unicode="&#58988;" d="M835.426941-128H188.722807a59.304434 59.304434 0 0 0-59.247273 59.247273V389.406178H59.324819a59.247273 59.247273 0 0 0-38.512156 104.318643L473.526992 881.70443a59.104371 59.104371 0 0 0 77.167215-0.071451L1003.265634 493.65337a59.247273 59.247273 0 0 0-38.583607-104.247192h-70.022103v-458.158905a59.304434 59.304434 0 0 0-59.232983-59.247273zM512.082019 842.191958a5.244513 5.244513 0 0 1-3.486815-1.30041L55.823714 452.797616a5.430286 5.430286 0 0 1 3.515396-9.574451h123.910541v-511.975892a5.458866 5.458866 0 0 1 5.444576-5.444576h646.747004a5.444576 5.444576 0 0 1 5.430286 5.444576V443.208875h123.910541a5.387415 5.387415 0 0 1 5.07303 3.486815 5.458866 5.458866 0 0 1-1.529054 6.073346L515.568834 840.848677a5.173061 5.173061 0 0 1-3.486815 1.343281zM506.923248 361.711722a22.192719 22.192719 0 0 0-15.719248 6.459181l-77.081473 76.681348a21.821174 21.821174 0 0 0 0 31.08124 22.335622 22.335622 0 0 0 31.438495-0.071452l77.081474-76.667057a21.821174 21.821174 0 0 0-0.071452-31.081239 22.178429 22.178429 0 0 0-15.647796-6.402021zM517.2265 361.711722a22.2213 22.2213 0 0 0-15.719247 6.38773 21.821174 21.821174 0 0 0-0.071451 31.08124L578.560146 475.862039a22.349912 22.349912 0 0 0 31.438495 0.071452 21.821174 21.821174 0 0 0 0-31.08124l-77.067183-76.681348a22.192719 22.192719 0 0 0-15.704958-6.459181zM512.067729 130.567332a22.092688 22.092688 0 0 0-22.192719 21.978366V383.675798a22.192719 22.192719 0 0 0 44.385438 0v-231.1301a22.092688 22.092688 0 0 0-22.192719-21.978366zM622.531169 309.795334H401.64716a21.978366 21.978366 0 1 0 0 43.956732h220.884009a21.978366 21.978366 0 1 0 0-43.956732z m0-93.943939H401.64716a21.978366 21.978366 0 1 0 0 43.956732h220.884009a21.978366 21.978366 0 1 0 0-43.956732z"  horiz-adv-x="1024" />

    
    <glyph glyph-name="xiaoxi" unicode="&#58989;" d="M603.621053-56.140351c28.74386 35.929825 43.115789 50.301754 46.708772 50.301755 233.54386 43.115789 388.042105 222.764912 388.042105 445.529824C1041.964912 694.792982 808.421053 896 520.982456 896S0 694.792982 0 439.691228c0-222.764912 158.091228-402.414035 388.042105-445.529824 3.592982 0 17.964912-14.37193 46.708772-50.301755 35.929825-46.708772 57.54386-71.859649 82.638597-71.859649s46.708772 25.150877 86.231579 71.859649z m39.522807 114.975439c-21.557895-3.592982-35.929825-21.557895-75.452632-71.859649-25.150877-28.74386-46.708772-50.301754-46.708772-50.301755l-10.778947 10.778948c-7.185965 7.185965-17.964912 21.557895-28.74386 35.929824-43.115789 53.894737-57.54386 71.859649-79.045614 75.452632C194.021053 94.764912 57.54386 252.85614 57.54386 446.877193 57.54386 662.45614 265.880702 842.105263 524.575439 842.105263s467.087719-179.649123 467.087719-395.22807C988.070175 249.263158 851.536842 94.764912 643.14386 58.835088zM262.287719 432.505263c0-29.768421 22.526316-53.894737 50.301755-53.894737s50.301754 24.126316 50.301754 53.894737-22.45614 53.894737-50.301754 53.894737-50.301754-24.084211-50.301755-53.894737z m208.392983 0c0-29.768421 22.526316-53.894737 50.301754-53.894737s50.245614 24.126316 50.245614 53.894737-22.526316 53.894737-50.301754 53.894737-50.245614-24.084211-50.245614-53.894737z m208.392982 0c0-29.768421 22.526316-53.894737 50.301755-53.894737s50.301754 24.126316 50.301754 53.894737-22.45614 53.894737-50.301754 53.894737-50.301754-24.084211-50.301755-53.894737z"  horiz-adv-x="1038" />

    
    <glyph glyph-name="sousuo1" unicode="&#58990;" d="M1013.643994-71.029453l-209.895978 208.189507a451.646089 451.646089 0 0 1 113.764758 302.614256A455.059032 455.059032 0 0 1 460.178446 895.97099 455.059032 455.059032 0 0 1 0 440.911958a460.74727 460.74727 0 0 1 753.691522-349.826631L967.000443-117.673004a34.129427 34.129427 0 0 1 48.918846 0 32.99178 32.99178 0 0 1-2.275295 46.643551zM68.827679 440.911958a391.350768 391.350768 0 1 0 391.350767-386.800177A389.075472 389.075472 0 0 0 68.827679 440.911958z"  horiz-adv-x="1024" />

    
    <glyph glyph-name="xinyongqia1" unicode="&#58992;" d="M1198.020099 895.974401H133.113344A130.553472 130.553472 0 0 1 0 767.980801v-767.961602A130.553472 130.553472 0 0 1 133.113344-127.974401h1064.906755a130.553472 130.553472 0 0 1 133.113344 127.9936v767.961602A130.553472 130.553472 0 0 1 1198.020099 895.974401z m66.556672-895.955202a65.020749 65.020749 0 0 0-66.556672-63.9968H133.113344a65.020749 65.020749 0 0 0-66.556672 63.9968V447.9968h1198.020099z m0 511.974401H66.556672v255.987201a65.020749 65.020749 0 0 0 66.556672 63.9968h1064.906755a65.020749 65.020749 0 0 0 66.556672-63.9968zM947.152642 31.249638a57.341133 57.341133 0 0 1 70.140493 15.871206l153.592321 221.684916a39.422029 39.422029 0 0 1-18.943053 58.365081 57.341133 57.341133 0 0 1-70.140493-15.871206l-153.59232-221.684916a39.422029 39.422029 0 0 1 18.943052-58.365081zM742.362882 31.249638a57.341133 57.341133 0 0 1 70.140493 15.871206l153.59232 221.684916a39.422029 39.422029 0 0 1-18.943053 58.365081 57.341133 57.341133 0 0 1-70.140493-15.871206l-153.59232-221.684916a39.422029 39.422029 0 0 1 18.943053-58.365081zM588.770561 31.249638a57.341133 57.341133 0 0 1 70.140493 15.871206l153.592321 221.684916a39.422029 39.422029 0 0 1-18.943053 58.365081 57.341133 57.341133 0 0 1-70.140493-15.871206l-153.59232-221.684916a39.422029 39.422029 0 0 1 18.943052-58.365081z"  horiz-adv-x="1331" />

    
    <glyph glyph-name="zhanghu1" unicode="&#58993;" d="M940.022063-128a28.159564 28.159564 0 0 0-26.111595 25.599603 381.434088 381.434088 0 0 1-117.758175 281.595635 24.063627 24.063627 0 0 0 0 38.399405 25.087611 25.087611 0 0 0 39.423389 0A451.577001 451.577001 0 0 0 972.789555-102.400397a43.007333 43.007333 0 0 0-32.767492-25.599603z m-431.097318 422.393453A428.537358 428.537358 0 0 1 221.185205 179.195238 383.482056 383.482056 0 0 1 102.403046-102.400397a27.647571 27.647571 0 0 0-26.111595-25.599603 28.159564 28.159564 0 0 0-25.087611 25.599603 435.705247 435.705247 0 0 0 137.213873 319.99504 429.04935 429.04935 0 0 0 189.437064 108.542318 307.195238 307.195238 0 0 0-176.12527 268.795834 304.123286 304.123286 0 0 0 307.195238 301.051333 304.123286 304.123286 0 0 0 307.195239-301.051333 303.611294 303.611294 0 0 0-307.195239-300.539342zM508.924745 844.784922A255.996032 255.996032 0 0 1 256.000666 594.932795a250.876111 250.876111 0 0 1 248.316151-249.340136h6.655897a255.996032 255.996032 0 0 1 255.996032 249.340136A248.828143 248.828143 0 0 1 508.924745 844.784922z"  horiz-adv-x="1024" />

    
    <glyph glyph-name="yinhang" unicode="&#58994;" d="M350.72 555.287273L419.141818 650.705455C448.465455 689.803636 474.530909 709.818182 500.130909 709.818182s67.025455-18.618182 110.312727-60.974546l69.352728-94.021818a29.789091 29.789091 0 0 1 40.494545-5.12 30.72 30.72 0 0 1 6.981818 40.96l-72.610909 99.141818a266.24 266.24 0 0 1-120.552727 78.196364V866.210909a29.323636 29.323636 0 1 1-58.647273 0v-99.141818A191.301818 191.301818 0 0 1 372.596364 686.08L303.709091 590.661818a30.254545 30.254545 0 0 1 20.014545-46.545454 27.927273 27.927273 0 0 1 26.996364 11.170909zM76.101818 444.509091h872.261818a29.789091 29.789091 0 0 1 0 59.578182H76.101818a29.323636 29.323636 0 0 1-29.323636-29.789091 29.789091 29.789091 0 0 1 29.323636-29.789091z m872.261818-512H76.101818a30.254545 30.254545 0 0 1 0-60.509091h872.261818a30.254545 30.254545 0 0 1 0 60.043636zM120.785455 337.454545v-316.50909a29.323636 29.323636 0 1 1 58.647272 0V337.454545a29.323636 29.323636 0 1 1-58.647272 0z m118.225454 0v-316.50909a29.323636 29.323636 0 1 1 58.647273 0V337.454545a29.323636 29.323636 0 1 1-58.647273 0z m502.690909 0v-316.50909a29.323636 29.323636 0 1 1 58.647273 0V337.454545a29.323636 29.323636 0 1 1-58.647273 0z m118.225455 0v-316.50909a29.323636 29.323636 0 1 1 58.647272 0V337.454545a29.323636 29.323636 0 1 1-58.647272 0zM431.243636 337.454545v-316.50909a29.323636 29.323636 0 1 1 58.647273 0V337.454545a29.323636 29.323636 0 1 1-58.647273 0zM549.469091 337.454545v-316.50909a29.323636 29.323636 0 1 1 58.647273 0V337.454545a29.323636 29.323636 0 1 1-58.647273 0z"  horiz-adv-x="1024" />

    
    <glyph glyph-name="zhengxinbaogao1" unicode="&#58995;" d="M206.140654 896h516.031021a206.140654 206.140654 0 0 0 206.140654-206.140654v-611.733789a206.125557 206.125557 0 0 0-206.140654-206.125557h-516.031021A206.125557 206.125557 0 0 0 0 78.125557V689.859346A206.140654 206.140654 0 0 0 206.140654 896zM696.415416-128H231.896913A232.138472 232.138472 0 0 0 0 103.896913V664.103087C0 791.963436 104.036564 896 231.896913 896h464.518503c127.905641 0 231.896913-104.036564 231.896913-231.896913v-560.206174c0-127.905641-103.991272-231.896913-231.896913-231.896913zM231.896913 844.472385A180.565565 180.565565 0 0 1 51.527615 664.103087v-560.206174A180.565565 180.565565 0 0 1 231.896913-76.472385h464.518503a180.565565 180.565565 0 0 1 180.369298 180.369298V664.103087A180.565565 180.565565 0 0 1 696.415416 844.472385zM128.886975 682.446495h469.817711a25.771356 25.771356 0 1 0 0-51.527614H128.886975a25.771356 25.771356 0 1 0 0 51.527614z m0-247.719045h226.461829a25.771356 25.771356 0 0 0 0-51.527615h-226.461829a25.771356 25.771356 0 1 0 0 51.527615z m0-247.764339h226.461829a25.771356 25.771356 0 0 0 0-51.527614h-226.461829a25.771356 25.771356 0 1 0 0 51.527614zM1054.919588 138.575767l97.016248-53.74694a25.771356 25.771356 0 0 0-24.986289-45.096099l-96.94076 53.746941a25.771356 25.771356 0 0 0 24.986289 45.096098zM594.386813 287.240409c0-78.385988 41.065078-150.823578 107.750538-190.031669a212.179636 212.179636 0 0 1 215.501077 0c66.68546 39.253384 107.750538 111.721169 107.750538 190.031669 0 121.187273-96.472739 219.426415-215.501076 219.426415S594.386813 408.352195 594.386813 287.240409zM809.88789 42.103028c-133.008581 0-241.272432 110.030254-241.272433 245.197771s108.263852 245.182673 241.272433 245.182673 241.272432-109.969864 241.272432-245.182673-108.263852-245.197771-241.272432-245.197771z m0 438.79244c-104.610267 0-189.744818-86.870758-189.744818-193.655059s85.07416-193.655059 189.744818-193.655058 189.744818 86.885855 189.744817 193.655058S914.498157 480.819981 809.88789 480.819981zM752.532657 399.293722a51.542712 51.542712 0 1 1 25.771356 44.643175A51.527615 51.527615 0 0 1 752.532657 399.293722z"  horiz-adv-x="1165" />

    
    <glyph glyph-name="ziliao1" unicode="&#58996;" d="M847.639218 406.482832a27.400501 27.400501 0 0 1-27.285131 27.27071H202.45836a27.285131 27.285131 0 0 1 0-54.55584h617.895727a27.400501 27.400501 0 0 1 27.285131 27.28513zM956.592265 206.661071V802.391235A93.738557 93.738557 0 0 1 862.969078 896H160.910548A93.738557 93.738557 0 0 1 67.301782 802.391235v-836.393094a93.738557 93.738557 0 0 1 93.608766-93.608765H488.548437a23.405797 23.405797 0 0 1 0 46.797172H160.910548a46.854857 46.854857 0 0 0-46.811594 46.811593V802.391235a46.854857 46.854857 0 0 0 46.826015 46.811593h702.05853a46.854857 46.854857 0 0 0 46.811593-46.811593v-581.179056H661.460022a54.094358 54.094358 0 0 1-53.935724-53.935723v-267.428894c0-18.142016 6.431907-27.847562 16.20956-27.847562 6.215587 0 13.786779 3.908177 21.934823 12.056221l298.997155 299.011576c7.354871 7.369293 11.248627 14.262682 11.926429 20.103315a14.421317 14.421317 0 0 1 0 3.489959z m-304.145566-252.228826V167.276456a9.114272 9.114272 0 0 0 8.984481 8.98448h212.84421zM820.354087 610.241613H202.45836a27.285131 27.285131 0 0 0 0 54.555841h617.895727a27.285131 27.285131 0 0 0 0-54.555841z"  horiz-adv-x="1024" />

    
    <glyph glyph-name="icon-test2" unicode="&#58997;" d="M958.304045 56.948396a446.304045 446.304045 0 0 1-892.60809 0c0-246.359833 892.608089-246.359833 892.60809 0zM512 663.921897m-232.078103 0a232.078103 232.078103 0 1 1 464.156206 0 232.078103 232.078103 0 1 1-464.156206 0Z"  horiz-adv-x="1024" />

    
    <glyph glyph-name="icon-test3" unicode="&#58998;" d="M152.529218 895.997324h988.317975A150.745251 150.745251 0 0 0 1248.777224 851.398137a159.219096 159.219096 0 0 0 44.599187-111.051974v-711.357026a159.219096 159.219096 0 0 0-44.599187-111.051975 148.961283 148.961283 0 0 0-107.484039-44.599186H152.529218a148.961283 148.961283 0 0 0-107.48404 44.599186 159.219096 159.219096 0 0 0-44.599186 111.051975V739.008187A159.219096 159.219096 0 0 0 44.599187 851.398137a150.745251 150.745251 0 0 0 107.930031 44.599187zM162.341039 628.402205h968.694333a30.773439 30.773439 0 0 0 0-61.100886H162.341039a30.773439 30.773439 0 0 0 0 61.100886z m0-518.68854h455.803687a30.773439 30.773439 0 0 0 0-61.100886H162.341039a30.773439 30.773439 0 0 0 0 61.100886z"  horiz-adv-x="1293" />

    
    <glyph glyph-name="icon-test4" unicode="&#58999;" d="M1021.500841 765.258279a63.891926 63.891926 0 0 1-49.966763 56.929344H903.956079a29.898145 29.898145 0 0 1-25.802509-29.898145v-9.419963a30.307709 30.307709 0 0 1 25.802509-30.307709h48.738072a61.434545 61.434545 0 0 0 0-12.286909v-740.081481a63.072799 63.072799 0 0 0-21.706873-46.28069 58.977163 58.977163 0 0 0-18.839927-9.829527h-57.338908a45.461563 45.461563 0 0 0-44.642436 27.850327 94.609199 94.609199 0 0 0-6.962581 34.812909V773.039988a118.363889 118.363889 0 0 1-31.126836 97.885707A95.83789 95.83789 0 0 1 703.2699 895.909077H94.658344A87.646617 87.646617 0 0 1 28.309036 867.239623 135.975125 135.975125 0 0 1 0.458709 773.039988v-765.88399a140.480325 140.480325 0 0 1 12.286909-61.844108A124.916907 124.916907 0 0 1 123.327799-128h797.829952a117.135198 117.135198 0 0 1 49.5572 21.297309A130.241235 130.241235 0 0 1 1024.367786-2.673529V732.083625a122.869089 122.869089 0 0 1 0 31.536399zM119.232162-71.889783a59.386726 59.386726 0 0 0-52.424144 30.717273 74.540581 74.540581 0 0 0-6.962582 32.355527V789.422533a74.950144 74.950144 0 0 0 9.829527 45.461563 17.201672 17.201672 0 0 0 14.744291 5.324327h633.185373a23.345127 23.345127 0 0 0 16.792109-6.143454 59.79629 59.79629 0 0 0 9.419963-44.232872V-5.130911a158.910689 158.910689 0 0 1 13.5156-68.397126zM655.760519 705.052425c0-14.744291-16.792109-26.621636-36.860727-26.621636H181.076271c-20.478182 0-36.860727 11.877345-36.860727 26.621636s16.382545 27.0312 36.860727 27.0312h439.461775c20.068618 0 35.222472-11.877345 35.222473-27.0312zM696.716882 527.301809a40.956363 40.956363 0 0 0-38.089418-40.956363H202.783143a40.956363 40.956363 0 0 0 0 81.912726h455.844321A40.956363 40.956363 0 0 0 696.716882 527.301809zM696.716882 281.563631a40.956363 40.956363 0 0 0-38.089418-40.956363H202.783143a40.956363 40.956363 0 0 0 0 81.912726h455.844321a40.956363 40.956363 0 0 0 38.089418-40.956363zM369.065977 117.738178a37.679854 37.679854 0 0 0-33.993781-40.956363H198.277943a40.956363 40.956363 0 0 0 0 81.912727h136.794253A38.089418 38.089418 0 0 0 369.065977 117.738178z"  horiz-adv-x="1026" />

    
    <glyph glyph-name="zhima" unicode="&#59000;" d="M973.261326 404.90584c-19.965513 155.828395-112.488622 302.891442-271.238799 422.197557a258.090779 258.090779 0 0 1-275.621474 48.696373 261.986489 261.986489 0 0 1-130.019317-131.480208l-39.931026-30.191751C69.456637 562.68209 40.725776 401.01013 48.030232 291.930254a480.146241 480.146241 0 0 1 211.342261-355.970489A415.380065 415.380065 0 0 1 492.628121-127.832484a486.963734 486.963734 0 0 1 368.144583 164.106778A500.111754 500.111754 0 0 1 973.261326 404.90584zM924.564953 402.957985a577.538988 577.538988 0 0 1-243.481867 382.266531 229.359919 229.359919 0 0 1-246.403649 42.365845A234.229556 234.229556 0 0 1 318.782068 709.745137l-35.548352-26.783005C115.718191 545.638359 89.909113 399.062275 96.726606 300.695601a432.910759 432.910759 0 0 1 188.941928-321.883028A368.631546 368.631546 0 0 1 494.575976-79.136111a432.423795 432.423795 0 0 1 329.187484 146.08912A454.337163 454.337163 0 0 1 924.564953 402.957985zM416.174815 402.957985l7.304456 4.869637 26.296042-26.296041c48.696373-44.800663 84.73169-78.401161 84.731689-146.08912a108.592913 108.592913 0 0 0-31.165679-80.83598 110.053804 110.053804 0 0 0-77.427233-38.957099h-7.304456a143.167338 143.167338 0 0 0-70.122778 18.991586 251.76025 251.76025 0 0 0-29.217824 23.861223 120.280042 120.280042 0 0 0-9.739275 140.245555 363.761909 363.761909 0 0 0 106.645058 104.210239zM823.276496 66.953009a433.884687 433.884687 0 0 0-330.648375-146.08912 373.988147 373.988147 0 0 0-205.498695 57.948684c-146.08912 84.73169-340.874613 421.22363 0 695.384212a247.86454 247.86454 0 0 1 97.392746-243.481867 470.406967 470.406967 0 0 1-120.280042-115.410405 164.593742 164.593742 0 0 1 13.634985-194.785493 214.751007 214.751007 0 0 1 37.009243-28.730861 178.71569 178.71569 0 0 1 97.392747-26.783005h6.817492a168.002488 168.002488 0 0 1 157.289286 167.028561c0 104.697203-71.583669 146.08912-136.349845 211.829224L432.731582 456.523996A292.17824 292.17824 0 0 0 340.208473 712.179956c0 42.365845 69.14885 104.697203 101.77542 115.897369A243.481867 243.481867 0 0 0 527.202546 846.094983a222.055463 222.055463 0 0 0 143.654302-57.948685c351.100852-267.34309 270.264872-584.35648 152.419648-721.193289z"  horiz-adv-x="1024" />

    
    <glyph glyph-name="icon-test5" unicode="&#59001;" d="M512.599397 378.487509a463.05904 463.05904 0 0 1-324.264155-133.062942 450.366883 450.366883 0 0 1-134.700641-320.98876V-99.310811a25.79374 25.79374 0 0 0-24.565466-26.612588 25.384315 25.384315 0 0 0-29.069135 22.108919v14.329856 13.920431A500.316664 500.316664 0 0 0 149.849345 281.863342a510.9617 510.9617 0 0 0 231.324808 131.01582 259.16567 259.16567 0 0 0-54.862875 40.942444A255.890274 255.890274 0 0 0 327.539551 820.256479a264.897612 264.897612 0 0 0 370.938542 0 255.48085 255.48085 0 0 0 10.235611-355.380413 25.79374 25.79374 0 0 0-36.438775-2.047122 24.974891 24.974891 0 0 0-2.047123 35.619926 206.759342 206.759342 0 0 1 40.942444 64.689061 210.853586 210.853586 0 0 1 13.511007 74.105824 204.712219 204.712219 0 0 1-61.823091 146.983373 212.491284 212.491284 0 0 1-298.060991 0 204.712219 204.712219 0 0 1 0-294.376171 211.672435 211.672435 0 0 1 147.802222-60.594817 513.827671 513.827671 0 0 0 361.112355-147.392798A500.316664 500.316664 0 0 0 1023.561097-75.564193v-27.840862a25.79374 25.79374 0 0 0-51.587479 2.456547v25.384315a450.366883 450.366883 0 0 1-134.700641 320.98876 463.05904 463.05904 0 0 1-324.67358 133.062942z"  horiz-adv-x="1024" />

    
    <glyph glyph-name="icon-test6" unicode="&#59002;" d="M1021.500841 765.258279a63.891926 63.891926 0 0 1-49.966763 56.929344H903.956079a29.898145 29.898145 0 0 1-25.802509-29.898145v-9.419963a30.307709 30.307709 0 0 1 25.802509-30.307709h48.738072a61.434545 61.434545 0 0 0 0-12.286909v-740.081481a63.072799 63.072799 0 0 0-21.706873-46.28069 58.977163 58.977163 0 0 0-18.839927-9.829527h-57.338908a45.461563 45.461563 0 0 0-44.642436 27.850327 94.609199 94.609199 0 0 0-6.962581 34.812909V773.039988a118.363889 118.363889 0 0 1-31.126836 97.885707A95.83789 95.83789 0 0 1 703.2699 895.909077H94.658344A87.646617 87.646617 0 0 1 28.309036 867.239623 135.975125 135.975125 0 0 1 0.458709 773.039988v-765.88399a140.480325 140.480325 0 0 1 12.286909-61.844108A124.916907 124.916907 0 0 1 123.327799-128h797.829952a117.135198 117.135198 0 0 1 49.5572 21.297309A130.241235 130.241235 0 0 1 1024.367786-2.673529V732.083625a122.869089 122.869089 0 0 1 0 31.536399zM655.760519 715.291516a36.860727 36.860727 0 0 0-36.860727-36.860727H181.076271a36.860727 36.860727 0 0 0 0 73.721453h439.461775a36.860727 36.860727 0 0 0 35.222473-36.860726zM696.716882 527.301809a40.956363 40.956363 0 0 0-38.089418-40.956363H202.783143a40.956363 40.956363 0 0 0 0 81.912726h455.844321A40.956363 40.956363 0 0 0 696.716882 527.301809zM696.716882 281.563631a40.956363 40.956363 0 0 0-38.089418-40.956363H202.783143a40.956363 40.956363 0 0 0 0 81.912726h455.844321a40.956363 40.956363 0 0 0 38.089418-40.956363zM369.065977 117.738178a37.679854 37.679854 0 0 0-33.993781-40.956363H198.277943a40.956363 40.956363 0 0 0 0 81.912727h136.794253A38.089418 38.089418 0 0 0 369.065977 117.738178z"  horiz-adv-x="1026" />

    


  </font>
</defs>
</svg>
